<svg width="20" height="20" viewBox="0 0 20 20" fill="none" xmlns="http://www.w3.org/2000/svg">
<path d="M13.1016 6.72656C13.1953 6.63281 13.3125 6.58594 13.4531 6.58594C13.5938 6.58594 13.7109 6.63281 13.8047 6.72656L14.5078 7.42969C14.6172 7.52344 14.6719 7.64062 14.6719 7.78125C14.6719 7.92188 14.625 8.03906 14.5312 8.13281L9.75 12.9844C9.65625 13.0781 9.54688 13.1484 9.42188 13.1953C9.29688 13.2422 9.16406 13.2656 9.02344 13.2656C8.89844 13.2656 8.77344 13.2422 8.64844 13.1953C8.52344 13.1484 8.41406 13.0703 8.32031 12.9609L6.07031 10.6406C5.97656 10.5469 5.92969 10.4297 5.92969 10.2891C5.92969 10.1484 5.98438 10.0312 6.09375 9.9375L6.79688 9.23438C6.90625 9.14062 7.02344 9.09375 7.14844 9.09375C7.28906 9.09375 7.40625 9.14844 7.5 9.25781L9.04688 10.8516L13.1016 6.72656ZM9.98438 0C11.3594 0 12.6562 0.265625 13.875 0.796875C15.0938 1.3125 16.1484 2.02344 17.0391 2.92969C17.9453 3.83594 18.6641 4.89844 19.1953 6.11719C19.7109 7.32031 19.9688 8.61719 19.9688 10.0078C19.9688 11.3828 19.7109 12.6797 19.1953 13.8984C18.6641 15.1016 17.9453 16.1562 17.0391 17.0625C16.1484 17.9688 15.0938 18.6797 13.875 19.1953C12.6562 19.7266 11.3594 19.9922 9.98438 19.9922C8.60938 19.9922 7.3125 19.7266 6.09375 19.1953C4.875 18.6797 3.8125 17.9688 2.90625 17.0625C2.01562 16.1562 1.30469 15.1016 0.773438 13.8984C0.257812 12.6797 0 11.3828 0 10.0078C0 8.61719 0.257812 7.32031 0.773438 6.11719C1.30469 4.89844 2.01562 3.83594 2.90625 2.92969C3.8125 2.02344 4.875 1.3125 6.09375 0.796875C7.3125 0.265625 8.60938 0 9.98438 0ZM1.99219 10.0078C1.99219 11.1016 2.20312 12.1328 2.625 13.1016C3.04688 14.0703 3.61719 14.9219 4.33594 15.6562C5.05469 16.375 5.89844 16.9453 6.86719 17.3672C7.83594 17.7891 8.875 18 9.98438 18C11.0938 18 12.1328 17.7891 13.1016 17.3672C14.0703 16.9453 14.9141 16.375 15.6328 15.6562C16.3516 14.9219 16.9219 14.0703 17.3438 13.1016C17.7656 12.1328 17.9766 11.1016 17.9766 10.0078C17.9766 8.89844 17.7656 7.85938 17.3438 6.89062C16.9219 5.92187 16.3516 5.07812 15.6328 4.35938C14.9141 3.625 14.0703 3.05469 13.1016 2.64844C12.1328 2.22656 11.0938 2.01562 9.98438 2.01562C8.875 2.01562 7.83594 2.22656 6.86719 2.64844C5.89844 3.05469 5.05469 3.625 4.33594 4.35938C3.61719 5.07812 3.04688 5.92187 2.625 6.89062C2.20312 7.85938 1.99219 8.89844 1.99219 10.0078Z" fill="#EB0033"/>
</svg>
