<svg width="20" height="20" viewBox="0 0 20 20" fill="none" xmlns="http://www.w3.org/2000/svg">
<path d="M0 10C0 4.47715 4.47715 0 10 0V0C15.5228 0 20 4.47715 20 10V10C20 15.5228 15.5228 20 10 20V20C4.47715 20 0 15.5228 0 10V10Z" fill="white"/>
<path d="M13.3164 7.55859C13.3633 7.60547 13.3867 7.66406 13.3867 7.73438C13.3867 7.79688 13.3633 7.85156 13.3164 7.89844L9.02734 12.1875C8.98047 12.2344 8.92188 12.2578 8.85156 12.2578C8.78906 12.2578 8.73438 12.2344 8.6875 12.1875L6.20312 9.70312C6.15625 9.65625 6.13281 9.60156 6.13281 9.53906C6.13281 9.46875 6.15625 9.41016 6.20312 9.36328L6.70703 8.84766C6.75391 8.80078 6.80859 8.77734 6.87109 8.77734C6.94141 8.77734 7 8.80078 7.04688 8.84766L8.86328 10.6641L12.4727 7.05469C12.5195 7.00781 12.5742 6.98438 12.6367 6.98438C12.707 6.98438 12.7656 7.00781 12.8125 7.05469L13.3164 7.55859Z" fill="#666666"/>
</svg>
