<svg preserveAspectRatio="none" width="100%" height="100%" overflow="visible" style="display: block;" viewBox="0 0 110 115" fill="none" xmlns="http://www.w3.org/2000/svg">
<g id="Frame" clip-path="url(#clip0_4948_12604)">
<path id="Vector" d="M0 18.6783C0 8.36255 8.37225 0 18.7 0H45.8333C56.1611 0 64.5333 8.36255 64.5333 18.6783C64.5333 28.9941 56.1611 37.3567 45.8333 37.3567H18.7C8.37225 37.3567 0 28.9941 0 18.6783Z" fill="var(--fill-0, white)"/>
<path id="Vector_2" d="M18.3713 28.1045C16.9618 28.1045 15.7489 27.8017 14.7327 27.1959C13.7166 26.5738 12.9462 25.6898 12.4217 24.5438C12.4054 24.511 12.3971 24.4701 12.3971 24.421C12.3971 24.3391 12.4463 24.2736 12.5446 24.2246L13.9706 23.4878C14.0034 23.4715 14.0444 23.4633 14.0935 23.4633C14.1918 23.4633 14.2656 23.5124 14.3148 23.6106C14.7573 24.4128 15.3064 25.0104 15.962 25.4033C16.6176 25.7962 17.4207 25.9926 18.3713 25.9926C19.5187 25.9926 20.4119 25.747 21.0511 25.2559C21.7067 24.7484 22.0345 24.0527 22.0345 23.1686C22.0345 22.3337 21.7313 21.6706 21.1249 21.1795C20.5184 20.672 19.5433 20.2218 18.1993 19.8289C16.5274 19.3377 15.208 18.7074 14.241 17.938C13.2904 17.1522 12.8151 16.0471 12.8151 14.6229C12.8151 13.7388 13.0445 12.9366 13.5035 12.2163C13.9624 11.4796 14.618 10.8984 15.4703 10.4728C16.339 10.0471 17.3388 9.83426 18.4697 9.83426C19.8465 9.83426 20.9938 10.1207 21.9116 10.6938C22.8459 11.2668 23.5671 12.0362 24.0751 13.0021C24.0915 13.0348 24.0997 13.0758 24.0997 13.1249C24.0997 13.2068 24.0505 13.2722 23.9522 13.3213L22.5017 14.0826C22.4689 14.099 22.4279 14.1071 22.3788 14.1071C22.2804 14.1071 22.2067 14.0663 22.1574 13.9844C21.7313 13.3131 21.2233 12.8057 20.6332 12.4618C20.0432 12.1181 19.322 11.9462 18.4697 11.9462C17.4207 11.9462 16.6012 12.1918 16.0112 12.6829C15.4211 13.174 15.1261 13.8125 15.1261 14.5983C15.1261 15.335 15.4048 15.9244 15.962 16.3664C16.5356 16.7921 17.4207 17.185 18.6172 17.5451C19.7809 17.9053 20.7643 18.29 21.5674 18.6993C22.3706 19.0922 23.0344 19.6488 23.5588 20.3691C24.0833 21.0895 24.3456 22.0062 24.3456 23.1195C24.3456 24.0854 24.0997 24.9449 23.608 25.698C23.1327 26.451 22.4443 27.0404 21.5428 27.466C20.6414 27.8917 19.5843 28.1045 18.3713 28.1045ZM32.262 28.1045C31.0819 28.1045 30.0166 27.8344 29.066 27.2941C28.1317 26.7375 27.4023 25.9681 26.8778 24.9858C26.3534 23.9872 26.0911 22.8494 26.0911 21.5724C26.0911 20.3773 26.3451 19.2887 26.8533 18.3064C27.3778 17.3077 28.0907 16.5219 28.9922 15.9489C29.91 15.3759 30.9344 15.0894 32.0654 15.0894C33.1307 15.0894 34.0732 15.3432 34.8927 15.8507C35.7285 16.3582 36.376 17.0621 36.8349 17.9626C37.2938 18.8466 37.5233 19.8453 37.5233 20.9585C37.5233 21.2204 37.4987 21.5396 37.4495 21.9162C37.4495 22.0635 37.3676 22.1372 37.2037 22.1372H28.3038C28.4185 23.3651 28.8365 24.331 29.5577 25.0349C30.2952 25.7225 31.1967 26.0663 32.262 26.0663C33.6552 26.0663 34.696 25.5178 35.3844 24.421C35.4171 24.3555 35.4663 24.3146 35.5318 24.2982C35.5974 24.2818 35.663 24.2901 35.7285 24.3228L37.0807 25.0104C37.2118 25.0922 37.261 25.1823 37.2283 25.2805C36.7693 26.1318 36.1137 26.8194 35.2615 27.3433C34.4255 27.8508 33.4257 28.1045 32.262 28.1045ZM35.3352 20.2218C35.2368 19.2559 34.8844 18.5028 34.278 17.9626C33.6716 17.4059 32.9176 17.1276 32.0162 17.1276C31.1147 17.1276 30.3362 17.4141 29.6806 17.9871C29.0413 18.5437 28.6152 19.2886 28.4021 20.2218H35.3352ZM44.7022 28.08C43.2762 28.08 42.1535 27.6461 41.334 26.7784C40.5309 25.9107 40.1293 24.6993 40.1293 23.1441V15.6051C40.1293 15.5232 40.1539 15.466 40.2031 15.4332C40.2522 15.3841 40.3096 15.3595 40.3751 15.3595H42.0961C42.1781 15.3595 42.2354 15.3841 42.2682 15.4332C42.3174 15.466 42.342 15.5232 42.342 15.6051V23.0212C42.342 24.0199 42.5715 24.7812 43.0304 25.3051C43.4893 25.8125 44.1449 26.0663 44.9972 26.0663C45.6856 26.0663 46.3248 25.8699 46.9149 25.477C47.5049 25.0841 48.0294 24.5683 48.4883 23.9299V15.6051C48.4883 15.5232 48.5129 15.466 48.5621 15.4332C48.6112 15.3841 48.6685 15.3595 48.7341 15.3595H50.4551C50.5371 15.3595 50.5944 15.3841 50.6272 15.4332C50.6763 15.466 50.701 15.5232 50.701 15.6051V27.5888C50.701 27.6543 50.6763 27.7116 50.6272 27.7607C50.5944 27.8099 50.5371 27.8344 50.4551 27.8344H48.8571C48.7915 27.8344 48.7341 27.8099 48.685 27.7607C48.6358 27.7116 48.6112 27.6543 48.6112 27.5888V25.9926C48.1359 26.6147 47.5705 27.1223 46.9149 27.5152C46.2593 27.8917 45.5217 28.08 44.7022 28.08Z" fill="var(--fill-0, #F1083B)"/>
<path id="Vector_3" d="M0 57.5C0 47.1842 8.37225 38.8217 18.7 38.8217H91.3C101.628 38.8217 110 47.1842 110 57.5C110 67.8158 101.628 76.1783 91.3 76.1783H18.7C8.37225 76.1783 0 67.8158 0 57.5Z" fill="var(--fill-0, white)"/>
<path id="Vector_4" d="M15.6424 66.4105C15.6424 66.4759 15.6178 66.5333 15.5687 66.5824C15.5359 66.6315 15.4785 66.6561 15.3966 66.6561H13.6756C13.61 66.6561 13.5527 66.6315 13.5035 66.5824C13.4543 66.5333 13.4297 66.4759 13.4297 66.4105V54.4268C13.4297 54.3449 13.4543 54.2876 13.5035 54.2549C13.5527 54.2057 13.61 54.1812 13.6756 54.1812H15.3228C15.4048 54.1812 15.4621 54.2057 15.4949 54.2549C15.544 54.2876 15.5687 54.3449 15.5687 54.4268V56.0475C16.2243 55.3436 16.9044 54.8197 17.6092 54.4759C18.314 54.1157 19.0761 53.9357 19.8956 53.9357C21.2396 53.9357 22.2886 54.3695 23.0426 55.2371C23.8129 56.1048 24.1981 57.2754 24.1981 58.7487V66.4105C24.1981 66.4759 24.1735 66.5333 24.1243 66.5824C24.0915 66.6315 24.0341 66.6561 23.9522 66.6561H22.2312C22.1657 66.6561 22.1083 66.6315 22.0591 66.5824C22.01 66.5333 21.9854 66.4759 21.9854 66.4105V58.8716C21.9854 57.9711 21.7723 57.2671 21.3462 56.7597C20.9364 56.2358 20.3382 55.9739 19.5515 55.9739C18.2238 55.9739 16.9208 56.7187 15.6424 58.2085V66.4105ZM32.975 66.9262C31.7949 66.9262 30.7295 66.6561 29.7789 66.1158C28.8446 65.5592 28.1153 64.7898 27.5908 63.8075C27.0663 62.8088 26.8041 61.6711 26.8041 60.394C26.8041 59.199 27.0582 58.1103 27.5662 57.128C28.0907 56.1294 28.8037 55.3436 29.7051 54.7705C30.623 54.1976 31.6474 53.9111 32.7783 53.9111C33.8437 53.9111 34.7861 54.1649 35.6056 54.6723C36.4415 55.1799 37.0889 55.8838 37.5478 56.7842C38.0068 57.6683 38.2362 58.6669 38.2362 59.7802C38.2362 60.0421 38.2117 60.3613 38.1624 60.7379C38.1624 60.8852 38.0805 60.9589 37.9166 60.9589H29.0168C29.1315 62.1867 29.5494 63.1527 30.2706 63.8566C31.0082 64.5442 31.9096 64.888 32.975 64.888C34.3682 64.888 35.4089 64.3395 36.0973 63.2427C36.1301 63.1772 36.1793 63.1362 36.2449 63.1198C36.3104 63.1035 36.376 63.1117 36.4415 63.1445L37.7937 63.832C37.9248 63.9139 37.974 64.0039 37.9412 64.1022C37.4823 64.9535 36.8267 65.641 35.9744 66.1649C35.1385 66.6725 34.1387 66.9262 32.975 66.9262ZM36.0482 59.0434C35.9498 58.0776 35.5974 57.3245 34.991 56.7842C34.3845 56.2276 33.6306 55.9493 32.7291 55.9493C31.8277 55.9493 31.0491 56.2358 30.3935 56.8088C29.7543 57.3654 29.3282 58.1103 29.1151 59.0434H36.0482ZM45.8085 72.1813C44.5956 72.1813 43.5302 72.0094 42.6124 71.6657C41.711 71.3382 41.0144 70.8634 40.5227 70.2413C40.031 69.6356 39.7851 68.9317 39.7851 68.1294C39.7851 67.7202 39.8671 67.2782 40.031 66.8034C40.2112 66.345 40.4735 65.8211 40.8177 65.2317L42.6616 62.0885C41.9077 61.6956 41.3176 61.1717 40.8915 60.5169C40.4817 59.8456 40.2768 59.1008 40.2768 58.2822C40.2768 57.4636 40.5063 56.7269 40.9652 56.0721C41.4405 55.4008 42.0798 54.877 42.8828 54.5005C43.686 54.1075 44.5874 53.9111 45.5872 53.9111C46.1937 53.9111 46.8247 53.9929 47.4803 54.1567C48.1359 53.2235 49.0538 52.4459 50.2338 51.8238L50.3568 51.7746C50.4387 51.7746 50.5124 51.8238 50.578 51.922L51.3648 53.3217C51.3811 53.3544 51.3894 53.3954 51.3894 53.4445C51.3894 53.5263 51.3402 53.5918 51.2418 53.641C50.7338 53.8538 50.3158 54.0584 49.988 54.2549C49.6766 54.435 49.3898 54.6642 49.1275 54.9425C49.7012 55.3354 50.1437 55.8265 50.4551 56.4158C50.7829 56.9889 50.9468 57.611 50.9468 58.2822C50.9468 59.1335 50.7092 59.9029 50.2338 60.5905C49.7749 61.2617 49.1357 61.7938 48.3162 62.1867C47.5131 62.5632 46.6034 62.7515 45.5872 62.7515C45.2266 62.7515 44.8579 62.7269 44.4809 62.6779L43.4974 64.3969L48.4145 65.1827C49.5127 65.3464 50.3568 65.6901 50.9468 66.214C51.5368 66.7379 51.8319 67.3928 51.8319 68.1786C51.8319 68.948 51.586 69.6356 51.0943 70.2413C50.619 70.8471 49.9224 71.3218 49.0046 71.6657C48.1031 72.0094 47.0378 72.1813 45.8085 72.1813ZM45.5872 60.8361C46.5215 60.8361 47.2836 60.5987 47.8737 60.124C48.4801 59.6328 48.7833 59.0189 48.7833 58.2822C48.7833 57.5618 48.4801 56.9807 47.8737 56.5387C47.2836 56.0966 46.5215 55.8756 45.5872 55.8756C44.6694 55.8756 43.9154 56.0966 43.3254 56.5387C42.7354 56.9807 42.4403 57.5618 42.4403 58.2822C42.4403 59.0353 42.7354 59.6492 43.3254 60.124C43.9154 60.5987 44.6694 60.8361 45.5872 60.8361ZM45.8822 70.2905C47.0951 70.2905 48.0212 70.1186 48.6604 69.7747C49.316 69.431 49.6438 68.9562 49.6438 68.3504C49.6438 67.7447 49.0701 67.3436 47.9228 67.1472L42.4895 66.1895C42.0798 66.8443 41.8749 67.4419 41.8749 67.9821C41.8749 68.7025 42.2272 69.2673 42.932 69.6765C43.6532 70.0858 44.6366 70.2905 45.8822 70.2905ZM58.7649 66.9262C57.5849 66.9262 56.5359 66.6478 55.618 66.0912C54.7166 65.5346 54.0118 64.7651 53.5037 63.7829C53.012 62.7843 52.7661 61.6546 52.7661 60.394C52.7661 59.1826 53.0201 58.0858 53.5283 57.1034C54.0363 56.1048 54.7493 55.3272 55.6672 54.7705C56.585 54.1976 57.6176 53.9111 58.7649 53.9111C59.9287 53.9111 60.9612 54.1894 61.8627 54.746C62.7805 55.3026 63.4853 56.0721 63.977 57.0544C64.4851 58.0366 64.7392 59.1498 64.7392 60.394C64.7392 61.6219 64.4769 62.7351 63.9524 63.7338C63.4443 64.7324 62.7313 65.5183 61.8135 66.0912C60.9121 66.6478 59.8959 66.9262 58.7649 66.9262ZM58.7649 64.888C59.4861 64.888 60.1253 64.7079 60.6826 64.3477C61.2562 63.9712 61.6988 63.4473 62.0102 62.7761C62.3216 62.0885 62.4773 61.2945 62.4773 60.394C62.4773 59.51 62.3216 58.7324 62.0102 58.0612C61.6988 57.39 61.2562 56.8742 60.6826 56.5141C60.1253 56.1376 59.4861 55.9493 58.7649 55.9493C58.0438 55.9493 57.3963 56.1376 56.8227 56.5141C56.2654 56.8742 55.8229 57.39 55.4951 58.0612C55.1837 58.7324 55.0279 59.51 55.0279 60.394C55.0279 61.2945 55.1837 62.0885 55.4951 62.7761C55.8229 63.4473 56.2654 63.9712 56.8227 64.3477C57.3963 64.7079 58.0438 64.888 58.7649 64.888ZM61.961 49.4417C61.9774 49.4745 61.9856 49.5154 61.9856 49.5646C61.9856 49.6628 61.9446 49.7364 61.8627 49.7856L57.4127 52.1675C57.3472 52.2003 57.298 52.2167 57.2652 52.2167C57.1833 52.2167 57.1177 52.1757 57.0685 52.0939L56.5522 51.1853C56.5195 51.1198 56.5031 51.0707 56.5031 51.038C56.5031 50.9725 56.544 50.9152 56.626 50.866L60.8055 48.0175C60.8383 47.9847 60.8874 47.9683 60.953 47.9683C61.035 47.9683 61.1005 48.0093 61.1497 48.0911L61.961 49.4417ZM72.6556 66.9262C71.4919 66.9262 70.4593 66.6478 69.5578 66.0912C68.6564 65.5346 67.9516 64.757 67.4435 63.7583C66.9518 62.7597 66.706 61.6383 66.706 60.394C66.706 59.1663 66.96 58.0612 67.4681 57.0789C67.9926 56.0803 68.7056 55.3026 69.607 54.746C70.5085 54.1894 71.5329 53.9111 72.6802 53.9111C74.8931 53.9111 76.45 54.8852 77.3513 56.8334C77.3681 56.8661 77.3762 56.907 77.3762 56.9561C77.3762 57.0379 77.3271 57.1034 77.2288 57.1526L75.8274 57.791C75.7944 57.8074 75.7533 57.8156 75.7042 57.8156C75.6389 57.8156 75.5649 57.7747 75.4827 57.6928C74.8271 56.5305 73.8929 55.9493 72.6802 55.9493C71.959 55.9493 71.3116 56.1458 70.7379 56.5387C70.1807 56.9152 69.7463 57.4473 69.4349 58.1348C69.1235 58.8061 68.9678 59.5592 68.9678 60.394C68.9678 61.2781 69.1235 62.064 69.4349 62.7515C69.7463 63.4227 70.1807 63.9466 70.7379 64.3232C71.2952 64.6997 71.9344 64.888 72.6556 64.888C73.9669 64.888 74.9833 64.2904 75.7042 63.0953C75.7372 63.0298 75.7863 62.9889 75.8516 62.9725C75.9176 62.9561 75.9829 62.9643 76.0481 62.9971L77.3762 63.6847C77.5067 63.7665 77.5566 63.8566 77.5236 63.9548C77.1137 64.8552 76.4911 65.5756 75.6551 66.1158C74.8352 66.6561 73.8357 66.9262 72.6556 66.9262ZM81.9735 66.4105C81.9735 66.4759 81.9485 66.5333 81.8994 66.5824C81.8671 66.6315 81.8092 66.6561 81.7278 66.6561H80.0067C79.9407 66.6561 79.8835 66.6315 79.8343 66.5824C79.7852 66.5333 79.761 66.4759 79.761 66.4105V54.4268C79.761 54.3449 79.7852 54.2876 79.8343 54.2549C79.8835 54.2057 79.9407 54.1812 80.0067 54.1812H81.7278C81.8092 54.1812 81.8671 54.2057 81.8994 54.2549C81.9485 54.2876 81.9735 54.3449 81.9735 54.4268V66.4105ZM80.8669 51.4309C80.4078 51.4309 80.0309 51.2917 79.7361 51.0134C79.4574 50.7351 79.3181 50.3667 79.3181 49.9083C79.3181 49.4827 79.4574 49.1389 79.7361 48.8769C80.0309 48.5986 80.4078 48.4595 80.8669 48.4595C81.3259 48.4595 81.6948 48.5986 81.9735 48.8769C82.2521 49.1389 82.3915 49.4909 82.3915 49.9329C82.3915 50.3749 82.2521 50.7351 81.9735 51.0134C81.6948 51.2917 81.3259 51.4309 80.8669 51.4309ZM90.6517 66.9262C89.4718 66.9262 88.4231 66.6478 87.505 66.0912C86.6037 65.5346 85.899 64.7651 85.3908 63.7829C84.8987 62.7843 84.6531 61.6546 84.6531 60.394C84.6531 59.1826 84.9075 58.0858 85.415 57.1034C85.9232 56.1048 86.6367 55.3272 87.5541 54.7705C88.4723 54.1976 89.5048 53.9111 90.6517 53.9111C91.8155 53.9111 92.8481 54.1894 93.7501 54.746C94.6675 55.3026 95.3722 56.0721 95.8643 57.0544C96.3725 58.0366 96.6262 59.1498 96.6262 60.394C96.6262 61.6219 96.3637 62.7351 95.8393 63.7338C95.3311 64.7324 94.6183 65.5183 93.7009 66.0912C92.7989 66.6478 91.7833 66.9262 90.6517 66.9262ZM90.6517 64.888C91.3733 64.888 92.0121 64.7079 92.5694 64.3477C93.1436 63.9712 93.5858 63.4473 93.8975 62.7761C94.2084 62.0885 94.3646 61.2945 94.3646 60.394C94.3646 59.51 94.2084 58.7324 93.8975 58.0612C93.5858 57.39 93.1436 56.8742 92.5694 56.5141C92.0121 56.1376 91.3733 55.9493 90.6517 55.9493C89.9309 55.9493 89.2833 56.1376 88.7099 56.5141C88.1525 56.8742 87.7103 57.39 87.3818 58.0612C87.0709 58.7324 86.9154 59.51 86.9154 60.394C86.9154 61.2945 87.0709 62.0885 87.3818 62.7761C87.7103 63.4473 88.1525 63.9712 88.7099 64.3477C89.2833 64.7079 89.9309 64.888 90.6517 64.888Z" fill="var(--fill-0, #F1083B)"/>
<path id="Vector_5" d="M0 96.3217C0 86.0061 8.37225 77.6433 18.7 77.6433H61.2333C71.5611 77.6433 79.9333 86.0061 79.9333 96.3217C79.9333 106.637 71.5611 115 61.2333 115H18.7C8.37225 115 0 106.637 0 96.3217Z" fill="var(--fill-0, white)"/>
<path id="Vector_6" d="M16.5521 110.414C16.5521 110.642 16.4373 110.757 16.2078 110.757H13.5527C13.3232 110.757 13.2084 110.642 13.2084 110.414V93.224C13.2084 92.9947 13.3232 92.8797 13.5527 92.8797H16.0357C16.2652 92.8797 16.38 92.9947 16.38 93.224V94.3044C16.7897 93.7477 17.306 93.3221 17.9288 93.0277C18.5516 92.7164 19.24 92.5611 19.994 92.5611C21.0266 92.5611 21.9608 92.8306 22.7967 93.3712C23.649 93.8949 24.321 94.656 24.8127 95.6551C25.3044 96.6535 25.5502 97.832 25.5502 99.1915C25.5502 100.435 25.3044 101.565 24.8127 102.58C24.3374 103.578 23.6654 104.364 22.7967 104.937C21.928 105.511 20.9446 105.797 19.8465 105.797C18.3877 105.797 17.2896 105.314 16.5521 104.348V110.414ZM19.281 102.727C20.1169 102.727 20.7971 102.417 21.3216 101.794C21.8624 101.156 22.1329 100.288 22.1329 99.1915C22.1329 98.0943 21.8789 97.2263 21.3707 96.5883C20.8627 95.9496 20.1824 95.6302 19.3302 95.6302C18.7565 95.6302 18.2238 95.7774 17.7321 96.0726C17.2404 96.351 16.8471 96.7436 16.5521 97.2512V99.9526C16.5521 100.804 16.8061 101.483 17.3142 101.99C17.8223 102.482 18.4779 102.727 19.281 102.727ZM33.565 105.797C32.3194 105.797 31.2131 105.519 30.246 104.962C29.279 104.405 28.5168 103.627 27.9596 102.629C27.4187 101.614 27.1483 100.451 27.1483 99.1417C27.1483 97.898 27.4023 96.7765 27.9104 95.7774C28.4349 94.7791 29.1643 93.9931 30.0985 93.4203C31.0491 92.8475 32.1309 92.5611 33.3438 92.5611C34.4911 92.5611 35.4909 92.8226 36.3432 93.3463C37.2118 93.8708 37.8839 94.5908 38.3592 95.5079C38.8345 96.4242 39.0721 97.4724 39.0721 98.651C39.0721 98.8641 39.0557 99.1996 39.0229 99.6574C39.0066 99.8705 38.8837 99.9768 38.6542 99.9768H30.5165C30.6312 100.91 30.9754 101.639 31.549 102.162C32.1227 102.686 32.8357 102.948 33.6879 102.948C34.7698 102.948 35.6056 102.515 36.1956 101.647C36.3268 101.467 36.4825 101.426 36.6628 101.524L38.6788 102.482C38.8918 102.596 38.9656 102.719 38.9 102.85C38.4411 103.751 37.761 104.471 36.8595 105.011C35.958 105.535 34.8599 105.797 33.565 105.797ZM35.8515 97.6438C35.7695 96.8747 35.4991 96.285 35.0401 95.8763C34.5812 95.45 34.0076 95.2376 33.3192 95.2376C32.6308 95.2376 32.0407 95.4588 31.549 95.9005C31.0738 96.3261 30.746 96.9076 30.5656 97.6438H35.8515ZM46.2756 105.797C45.243 105.797 44.3006 105.535 43.4483 105.011C42.596 104.471 41.9159 103.701 41.4077 102.703C40.916 101.704 40.6702 100.533 40.6702 99.1915C40.6702 97.9309 40.916 96.8007 41.4077 95.8023C41.8994 94.7871 42.5796 93.9931 43.4483 93.4203C44.317 92.8475 45.3086 92.5611 46.4232 92.5611C47.8655 92.5611 48.939 93.0438 49.6438 94.0099V87.6249C49.6438 87.3956 49.7585 87.2813 49.988 87.2813H52.6432C52.8727 87.2813 52.9874 87.3956 52.9874 87.6249V105.134C52.9874 105.363 52.8727 105.478 52.6432 105.478H50.1601C49.9306 105.478 49.8159 105.363 49.8159 105.134V104.078C49.4226 104.619 48.9144 105.044 48.2916 105.355C47.6852 105.65 47.0132 105.797 46.2756 105.797ZM46.9394 102.727C47.5131 102.727 48.0294 102.588 48.4883 102.31C48.9636 102.015 49.3488 101.614 49.6438 101.106V98.4056C49.6438 97.5537 49.3979 96.8827 48.9062 96.392C48.431 95.8844 47.7917 95.6302 46.9886 95.6302C46.1199 95.6302 45.4151 95.9496 44.8743 96.5883C44.3334 97.2102 44.0629 98.0701 44.0629 99.1666C44.0629 100.263 44.3252 101.131 44.8496 101.77C45.3906 102.408 46.0871 102.727 46.9394 102.727ZM61.6906 105.797C60.4449 105.797 59.3386 105.519 58.3716 104.962C57.4045 104.405 56.6424 103.627 56.0851 102.629C55.5443 101.614 55.2738 100.451 55.2738 99.1417C55.2738 97.898 55.5279 96.7765 56.036 95.7774C56.5605 94.7791 57.2898 93.9931 58.224 93.4203C59.1747 92.8475 60.2565 92.5611 61.4693 92.5611C62.6166 92.5611 63.6165 92.8226 64.4687 93.3463C65.3374 93.8708 66.0094 94.5908 66.4847 95.5079C66.96 96.4242 67.1977 97.4724 67.1977 98.651C67.1977 98.8641 67.1813 99.1996 67.1485 99.6574C67.1321 99.8705 67.0092 99.9768 66.7798 99.9768H58.642C58.7567 100.91 59.101 101.639 59.6746 102.162C60.2483 102.686 60.9612 102.948 61.8135 102.948C62.8952 102.948 63.7311 102.515 64.3212 101.647C64.4523 101.467 64.608 101.426 64.7883 101.524L66.8043 102.482C67.0174 102.596 67.0911 102.719 67.0256 102.85C66.5667 103.751 65.8865 104.471 64.985 105.011C64.0835 105.535 62.9854 105.797 61.6906 105.797ZM63.977 97.6438C63.895 96.8747 63.6246 96.285 63.1657 95.8763C62.7068 95.45 62.1331 95.2376 61.4448 95.2376C60.7563 95.2376 60.1663 95.4588 59.6746 95.9005C59.1993 96.3261 58.8715 96.9076 58.6912 97.6438H63.977Z" fill="var(--fill-0, #F1083B)"/>
</g>
<defs>
<clipPath id="clip0_4948_12604">
<rect width="110" height="115" fill="white"/>
</clipPath>
</defs>
</svg>
