<svg preserveAspectRatio="none" width="100%" height="100%" overflow="visible" style="display: block;" viewBox="0 0 309 94.0804" fill="none" xmlns="http://www.w3.org/2000/svg">
<g id="Group 1597888230">
<path id="Vector" d="M14.0629 41.8634C11.3525 41.8634 8.91777 41.2591 6.75677 40.0504C4.63233 38.8052 2.96634 37.0654 1.75787 34.8313C0.585955 32.5604 0 29.9783 0 27.0849C0 24.3746 0.567199 21.9206 1.70255 19.723C2.87446 17.4889 4.48608 15.7308 6.53739 14.4489C8.58777 13.1671 10.9316 12.5261 13.5689 12.5261C16.0224 12.5261 18.1824 13.0937 20.0509 14.2292C21.955 15.3646 23.4195 16.9578 24.4451 19.0088C25.5073 21.0233 26.038 23.3124 26.038 25.8762C26.038 26.3158 26.0014 27.0482 25.9283 28.0738C25.8552 28.4767 25.617 28.6781 25.2139 28.6781H6.15206C6.40894 31.132 7.26959 33.0366 8.73401 34.3918C10.1994 35.7469 12.0116 36.4245 14.1726 36.4245C16.9196 36.4245 19.0253 35.3258 20.4897 33.1282C20.71 32.7253 21.0025 32.6337 21.3691 32.8535L25.1042 34.7214C25.5073 34.9411 25.6358 35.1792 25.4886 35.4356C24.4639 37.4134 22.9807 38.9883 21.0391 40.1603C19.0984 41.2958 16.7733 41.8634 14.0629 41.8634ZM20.0509 23.9534C19.8306 21.9756 19.1171 20.4556 17.9087 19.3935C16.7368 18.2947 15.2714 17.7453 13.5135 17.7453C11.7191 17.7453 10.1806 18.3129 8.89902 19.4484C7.61742 20.5472 6.75677 22.0488 6.31707 23.9534H20.0509ZM43.7273 41.8634C41.0169 41.8634 38.6177 41.2409 36.5308 39.9955C34.4795 38.7137 32.8688 36.9556 31.6969 34.7214C30.5616 32.4872 29.9934 29.96 29.9934 27.1398C29.9934 24.3562 30.5794 21.8474 31.7513 19.6132C32.9232 17.379 34.5526 15.6393 36.6405 14.3939C38.7649 13.1121 41.1453 12.4712 43.7816 12.4712C46.5286 12.4712 48.7805 13.0937 50.5384 14.3391C52.3328 15.5844 53.7063 17.2692 54.6588 19.3935C54.732 19.5399 54.7685 19.6498 54.7685 19.723C54.7685 19.9795 54.6223 20.1626 54.3288 20.2725L50.319 21.9756C50.2459 22.0121 50.1362 22.0305 49.989 22.0305C49.7331 22.0305 49.5502 21.9023 49.4396 21.6459C48.1215 19.3385 46.2352 18.1848 43.7816 18.1848C42.3172 18.1848 41.0169 18.5694 39.8815 19.3385C38.7462 20.1076 37.8677 21.1698 37.2452 22.5249C36.6217 23.8801 36.3105 25.4184 36.3105 27.1398C36.3105 28.9345 36.6217 30.5277 37.2452 31.9196C37.8677 33.2747 38.7462 34.3368 39.8815 35.106C41.0169 35.8385 42.2985 36.2048 43.7273 36.2048C46.4002 36.2048 48.4515 34.9961 49.8793 32.5788C50.0987 32.2126 50.4109 32.121 50.8131 32.3041L54.6588 34.0072C54.8417 34.0804 54.9701 34.1903 55.0432 34.3368C55.1164 34.4467 55.1164 34.5749 55.0432 34.7214C54.0907 36.8823 52.6629 38.6221 50.7587 39.9406C48.8537 41.2225 46.5099 41.8634 43.7273 41.8634ZM71.9075 41.8634C69.198 41.8634 66.7989 41.2409 64.711 39.9955C62.6241 38.7502 60.9947 37.0105 59.8228 34.7763C58.6874 32.5421 58.1193 29.9967 58.1193 27.1398C58.1193 24.3929 58.7052 21.9023 59.8771 19.6681C61.049 17.4339 62.6785 15.6759 64.7663 14.3939C66.8908 13.1121 69.2712 12.4712 71.9075 12.4712C74.6179 12.4712 76.9983 13.1121 79.0486 14.3939C81.1365 15.6393 82.7481 17.379 83.8835 19.6132C85.0554 21.8107 85.6414 24.3196 85.6414 27.1398C85.6414 29.9234 85.0554 32.4506 83.8835 34.7214C82.7116 36.9556 81.0812 38.7137 78.9943 39.9955C76.9064 41.2409 74.5448 41.8634 71.9075 41.8634ZM71.9075 36.2048C74.1416 36.2048 75.936 35.399 77.2908 33.7874C78.683 32.1392 79.3787 29.9417 79.3787 27.1948C79.3787 25.4001 79.0674 23.8251 78.4449 22.47C77.8224 21.1148 76.943 20.071 75.8076 19.3385C74.6723 18.5694 73.3729 18.1848 71.9075 18.1848C69.7099 18.1848 67.9155 19.0088 66.5242 20.657C65.1329 22.2686 64.4363 24.4295 64.4363 27.1398C64.4363 28.9345 64.7476 30.5277 65.371 31.9196C65.9936 33.2747 66.872 34.3368 68.0074 35.106C69.1427 35.8385 70.4431 36.2048 71.9075 36.2048ZM100.033 41.8634C97.5067 41.8634 95.3457 41.369 93.5513 40.3801C91.7568 39.3545 90.3468 37.8712 89.3211 35.9301C89.2846 35.8568 89.2668 35.7469 89.2668 35.6004C89.2668 35.3807 89.3765 35.1976 89.5958 35.051L93.0572 33.1282C93.1303 33.0549 93.2588 33.0183 93.4416 33.0183C93.661 33.0183 93.826 33.1282 93.9357 33.3479C95.4376 35.5454 97.4701 36.6442 100.033 36.6442C101.572 36.6442 102.744 36.3512 103.549 35.7652C104.392 35.1426 104.813 34.3368 104.813 33.3479C104.813 32.3957 104.373 31.6448 103.495 31.0955C102.615 30.5095 101.187 29.9783 99.2093 29.5022C96.3161 28.733 94.0088 27.7258 92.2875 26.4806C90.5671 25.2353 89.7065 23.3857 89.7065 20.9317C89.7065 19.3202 90.1452 17.8735 91.0246 16.5915C91.9031 15.3096 93.1303 14.3024 94.7054 13.5699C96.2795 12.8374 98.0561 12.4712 100.033 12.4712C102.487 12.4712 104.575 12.9656 106.296 13.9545C108.017 14.9434 109.372 16.3718 110.361 18.2397C110.398 18.3129 110.416 18.4228 110.416 18.5694C110.416 18.7892 110.288 18.9723 110.031 19.1187L106.571 20.8768C106.424 20.95 106.296 20.9867 106.186 20.9867C106.003 20.9867 105.839 20.8585 105.691 20.6021C105.069 19.6132 104.3 18.8807 103.384 18.4045C102.469 17.9284 101.37 17.6904 100.089 17.6904C98.8436 17.6904 97.7992 17.9467 96.9573 18.4595C96.152 18.9723 95.7488 19.6498 95.7488 20.4923C95.7488 21.3346 96.152 21.9939 96.9573 22.47C97.7992 22.9461 99.063 23.404 100.748 23.8435C102.762 24.4295 104.465 25.0705 105.856 25.7664C107.248 26.4256 108.42 27.3596 109.372 28.5682C110.361 29.7769 110.855 31.3152 110.855 33.1831C110.855 34.9411 110.398 36.4794 109.482 37.798C108.603 39.0799 107.339 40.0871 105.691 40.8196C104.081 41.5155 102.194 41.8634 100.033 41.8634ZM124.808 41.8634C122.282 41.8634 120.121 41.369 118.326 40.3801C116.532 39.3545 115.122 37.8712 114.096 35.9301C114.06 35.8568 114.042 35.7469 114.042 35.6004C114.042 35.3807 114.152 35.1976 114.371 35.051L117.832 33.1282C117.905 33.0549 118.033 33.0183 118.217 33.0183C118.436 33.0183 118.601 33.1282 118.711 33.3479C120.213 35.5454 122.245 36.6442 124.808 36.6442C126.347 36.6442 127.519 36.3512 128.324 35.7652C129.166 35.1426 129.588 34.3368 129.588 33.3479C129.588 32.3957 129.148 31.6448 128.269 31.0955C127.39 30.5095 125.962 29.9783 123.984 29.5022C121.091 28.733 118.784 27.7258 117.063 26.4806C115.341 25.2353 114.481 23.3857 114.481 20.9317C114.481 19.3202 114.92 17.8735 115.8 16.5915C116.678 15.3096 117.905 14.3024 119.48 13.5699C121.055 12.8374 122.831 12.4712 124.808 12.4712C127.262 12.4712 129.35 12.9656 131.071 13.9545C132.792 14.9434 134.147 16.3718 135.136 18.2397C135.173 18.3129 135.191 18.4228 135.191 18.5694C135.191 18.7892 135.062 18.9723 134.806 19.1187L131.346 20.8768C131.199 20.95 131.071 20.9867 130.961 20.9867C130.778 20.9867 130.613 20.8585 130.466 20.6021C129.844 19.6132 129.075 18.8807 128.159 18.4045C127.244 17.9284 126.145 17.6904 124.864 17.6904C123.618 17.6904 122.574 17.9467 121.732 18.4595C120.926 18.9723 120.524 19.6498 120.524 20.4923C120.524 21.3346 120.926 21.9939 121.732 22.47C122.574 22.9461 123.838 23.404 125.523 23.8435C127.537 24.4295 129.24 25.0705 130.631 25.7664C132.023 26.4256 133.195 27.3596 134.147 28.5682C135.136 29.7769 135.63 31.3152 135.63 33.1831C135.63 34.9411 135.173 36.4794 134.257 37.798C133.378 39.0799 132.115 40.0871 130.466 40.8196C128.855 41.5155 126.969 41.8634 124.808 41.8634ZM147.167 40.545C147.167 40.7281 147.093 40.8929 146.946 41.0394C146.837 41.1493 146.69 41.2042 146.508 41.2042H141.673C141.49 41.2042 141.325 41.1493 141.179 41.0394C141.069 40.8929 141.014 40.7281 141.014 40.545V13.8446C141.014 13.6615 141.069 13.515 141.179 13.4051C141.325 13.2586 141.49 13.1853 141.673 13.1853H146.508C146.69 13.1853 146.837 13.2586 146.946 13.4051C147.093 13.515 147.167 13.6615 147.167 13.8446V40.545ZM144.09 7.63648C142.881 7.63648 141.893 7.28853 141.123 6.59263C140.391 5.86015 140.025 4.92619 140.025 3.79082C140.025 2.65535 140.391 1.73976 141.123 1.04386C141.893 0.347951 142.881 0 144.09 0C145.262 0 146.214 0.347951 146.946 1.04386C147.679 1.73976 148.045 2.65535 148.045 3.79082C148.045 4.92619 147.679 5.86015 146.946 6.59263C146.214 7.28853 145.262 7.63648 144.09 7.63648ZM163.097 41.8634C160.57 41.8634 158.409 41.369 156.615 40.3801C154.821 39.3545 153.411 37.8712 152.385 35.9301C152.348 35.8568 152.33 35.7469 152.33 35.6004C152.33 35.3807 152.44 35.1976 152.66 35.051L156.12 33.1282C156.194 33.0549 156.322 33.0183 156.505 33.0183C156.725 33.0183 156.89 33.1282 156.999 33.3479C158.5 35.5454 160.533 36.6442 163.097 36.6442C164.635 36.6442 165.807 36.3512 166.613 35.7652C167.455 35.1426 167.876 34.3368 167.876 33.3479C167.876 32.3957 167.437 31.6448 166.558 31.0955C165.679 30.5095 164.25 29.9783 162.273 29.5022C159.38 28.733 157.073 27.7258 155.351 26.4806C153.63 25.2353 152.769 23.3857 152.769 20.9317C152.769 19.3202 153.209 17.8735 154.087 16.5915C154.967 15.3096 156.194 14.3024 157.768 13.5699C159.343 12.8374 161.119 12.4712 163.097 12.4712C165.551 12.4712 167.639 12.9656 169.359 13.9545C171.08 14.9434 172.436 16.3718 173.424 18.2397C173.462 18.3129 173.479 18.4228 173.479 18.5694C173.479 18.7892 173.351 18.9723 173.095 19.1187L169.634 20.8768C169.487 20.95 169.359 20.9867 169.249 20.9867C169.066 20.9867 168.901 20.8585 168.755 20.6021C168.133 19.6132 167.364 18.8807 166.448 18.4045C165.532 17.9284 164.434 17.6904 163.152 17.6904C161.906 17.6904 160.863 17.9467 160.021 18.4595C159.215 18.9723 158.812 19.6498 158.812 20.4923C158.812 21.3346 159.215 21.9939 160.021 22.47C160.863 22.9461 162.127 23.404 163.812 23.8435C165.825 24.4295 167.528 25.0705 168.92 25.7664C170.311 26.4256 171.483 27.3596 172.436 28.5682C173.424 29.7769 173.919 31.3152 173.919 33.1831C173.919 34.9411 173.462 36.4794 172.546 37.798C171.666 39.0799 170.403 40.0871 168.755 40.8196C167.144 41.5155 165.258 41.8634 163.097 41.8634ZM194.793 41.5888C191.571 41.0028 189.044 40.2153 187.212 39.2264C185.381 38.2009 184.063 36.8823 183.258 35.2708C182.451 33.6592 182.049 31.5899 182.049 29.0627V18.7892H176.94C176.757 18.7892 176.592 18.7342 176.446 18.6243C176.336 18.4778 176.281 18.3129 176.281 18.1298V13.8446C176.281 13.6615 176.336 13.515 176.446 13.4051C176.592 13.2586 176.757 13.1853 176.94 13.1853H182.049V5.76855C182.049 5.58543 182.104 5.43897 182.213 5.32908C182.361 5.18253 182.525 5.1093 182.708 5.1093H187.542C187.725 5.1093 187.872 5.18253 187.982 5.32908C188.128 5.43897 188.201 5.58543 188.201 5.76855V13.1853H196.441C196.625 13.1853 196.771 13.2586 196.881 13.4051C197.027 13.515 197.1 13.6615 197.1 13.8446V18.1298C197.1 18.3129 197.027 18.4778 196.881 18.6243C196.771 18.7342 196.625 18.7892 196.441 18.7892H188.201V28.4583C188.201 30.0699 188.422 31.3335 188.86 32.2491C189.337 33.1648 190.161 33.9157 191.333 34.5017C192.505 35.0877 194.281 35.6188 196.662 36.0949C197.1 36.1681 197.284 36.4245 197.211 36.864L196.387 41.2042C196.35 41.5339 196.149 41.6986 195.782 41.6986L194.793 41.5888ZM214.13 41.8634C211.42 41.8634 208.984 41.2591 206.823 40.0504C204.7 38.8052 203.033 37.0654 201.825 34.8313C200.653 32.5604 200.067 29.9783 200.067 27.0849C200.067 24.3746 200.635 21.9206 201.77 19.723C202.942 17.4889 204.554 15.7308 206.604 14.4489C208.655 13.1671 210.999 12.5261 213.636 12.5261C216.089 12.5261 218.25 13.0937 220.118 14.2292C222.022 15.3646 223.487 16.9578 224.513 19.0088C225.574 21.0233 226.106 23.3124 226.106 25.8762C226.106 26.3158 226.069 27.0482 225.996 28.0738C225.923 28.4767 225.685 28.6781 225.282 28.6781H206.22C206.476 31.132 207.336 33.0366 208.802 34.3918C210.266 35.7469 212.079 36.4245 214.24 36.4245C216.986 36.4245 219.092 35.3258 220.557 33.1282C220.777 32.7253 221.07 32.6337 221.436 32.8535L225.172 34.7214C225.574 34.9411 225.702 35.1792 225.556 35.4356C224.531 37.4134 223.047 38.9883 221.107 40.1603C219.166 41.2958 216.84 41.8634 214.13 41.8634ZM220.118 23.9534C219.898 21.9756 219.184 20.4556 217.975 19.3935C216.803 18.2947 215.338 17.7453 213.58 17.7453C211.786 17.7453 210.248 18.3129 208.967 19.4484C207.684 20.5472 206.823 22.0488 206.385 23.9534H220.118ZM237.806 40.545C237.806 40.7281 237.733 40.8929 237.587 41.0394C237.477 41.1493 237.33 41.2042 237.147 41.2042H232.313C232.13 41.2042 231.965 41.1493 231.819 41.0394C231.708 40.8929 231.654 40.7281 231.654 40.545V13.8446C231.654 13.6615 231.708 13.515 231.819 13.4051C231.965 13.2586 232.13 13.1853 232.313 13.1853H236.927C237.11 13.1853 237.257 13.2586 237.367 13.4051C237.513 13.515 237.587 13.6615 237.587 13.8446V17.1409C240.407 14.0644 243.446 12.5261 246.705 12.5261C248.683 12.5261 250.386 12.9473 251.815 13.7896C253.242 14.6321 254.341 15.8407 255.11 17.4156C256.648 15.8041 258.223 14.5954 259.834 13.7896C261.446 12.9473 263.186 12.5261 265.053 12.5261C268.203 12.5261 270.656 13.515 272.414 15.4927C274.172 17.4706 275.051 20.1626 275.051 23.5688V40.545C275.051 40.7281 274.978 40.8929 274.831 41.0394C274.721 41.1493 274.575 41.2042 274.392 41.2042H269.558C269.374 41.2042 269.209 41.1493 269.063 41.0394C268.953 40.8929 268.898 40.7281 268.898 40.545V24.0633C268.898 22.2319 268.477 20.8035 267.635 19.778C266.792 18.7158 265.566 18.1848 263.955 18.1848C261.355 18.1848 258.827 19.6865 256.374 22.6898C256.41 22.8729 256.429 23.1659 256.429 23.5688V40.545C256.429 40.7281 256.355 40.8929 256.209 41.0394C256.099 41.1493 255.953 41.2042 255.769 41.2042H250.935C250.752 41.2042 250.587 41.1493 250.441 41.0394C250.331 40.8929 250.276 40.7281 250.276 40.545V24.0633C250.276 22.2319 249.873 20.8035 249.068 19.778C248.262 18.7158 247.09 18.1848 245.552 18.1848C242.915 18.1848 240.334 19.6865 237.806 22.6898V40.545ZM292.684 41.8634C290.451 41.8634 288.4 41.2774 286.532 40.1054C284.665 38.8968 283.163 37.1937 282.027 34.9961C280.929 32.7619 280.379 30.1615 280.379 27.1948C280.379 24.3379 280.911 21.7925 281.973 19.5583C283.072 17.324 284.573 15.5844 286.477 14.3391C288.382 13.0937 290.505 12.4712 292.849 12.4712C294.571 12.4712 296.072 12.8191 297.354 13.515C298.636 14.1743 299.661 15.0898 300.43 16.2619V13.8446C300.43 13.6615 300.485 13.515 300.595 13.4051C300.741 13.2586 300.906 13.1853 301.089 13.1853H305.649C305.832 13.1853 305.978 13.2586 306.088 13.4051C306.235 13.515 306.308 13.6615 306.308 13.8446V28.4035C306.308 30.6376 306.491 32.4872 306.858 33.9522C307.223 35.3807 307.901 36.9739 308.89 38.732C308.963 38.8784 309 39.0066 309 39.1165C309 39.2997 308.872 39.4644 308.616 39.611L304.495 41.6438C304.349 41.717 304.239 41.7535 304.166 41.7535C303.982 41.7535 303.8 41.6438 303.617 41.424C302.664 40.0322 301.95 38.5122 301.474 36.864C300.559 38.3657 299.331 39.5743 297.794 40.49C296.292 41.4056 294.589 41.8634 292.684 41.8634ZM293.729 36.2048C295.12 36.2048 296.365 35.7836 297.464 34.9411C298.599 34.0988 299.496 32.9817 300.155 31.5899V25.0521C300.155 22.9645 299.569 21.298 298.397 20.0527C297.226 18.8074 295.688 18.1848 293.783 18.1848C291.659 18.1848 289.938 19.0088 288.62 20.657C287.337 22.2686 286.697 24.4478 286.697 27.1948C286.697 29.026 286.99 30.6193 287.576 31.9744C288.198 33.3297 289.041 34.3734 290.103 35.106C291.164 35.8385 292.373 36.2048 293.729 36.2048Z" fill="var(--fill-0, white)"/>
<path id="Vector_2" d="M16.1797 94.0804C13.4693 94.0804 11.0711 93.4578 8.98323 92.2126C6.93286 90.9309 5.32124 89.1728 4.14933 86.9385C3.01399 84.7041 2.44584 82.1772 2.44584 79.3569C2.44584 76.573 3.0318 74.064 4.20371 71.8305C5.37562 69.5962 7.00599 67.856 9.09293 66.6108C11.2174 65.3291 13.5977 64.6877 16.2341 64.6877C18.981 64.6877 21.233 65.3112 22.9908 66.5564C24.7862 67.8016 26.1588 69.4865 27.1113 71.6102C27.1844 71.7574 27.221 71.8671 27.221 71.9402C27.221 72.1962 27.0747 72.38 26.7813 72.4897L22.7715 74.1924C22.6983 74.229 22.5886 74.2477 22.4424 74.2477C22.1855 74.2477 22.0027 74.1193 21.893 73.8633C20.5739 71.5558 18.6885 70.4016 16.2341 70.4016C14.7697 70.4016 13.4693 70.786 12.334 71.5558C11.1986 72.3247 10.3201 73.387 9.69762 74.7419C9.07511 76.0967 8.76386 77.6354 8.76386 79.3569C8.76386 81.1515 9.07511 82.7445 9.69762 84.1369C10.3201 85.4917 11.1986 86.5541 12.334 87.3229C13.4693 88.0552 14.7509 88.4218 16.1797 88.4218C18.8526 88.4218 20.9039 87.2132 22.3318 84.796C22.5521 84.4294 22.8633 84.3375 23.2655 84.5213L27.1113 86.224C27.2941 86.2972 27.4225 86.4078 27.4957 86.5541C27.5688 86.6638 27.5688 86.7922 27.4957 86.9385C26.5431 89.0997 25.1153 90.839 23.2112 92.1573C21.307 93.44 18.9632 94.0804 16.1797 94.0804ZM44.3599 94.0804C41.6505 94.0804 39.2513 93.4578 37.1644 92.2126C35.0765 90.9675 33.4471 89.2272 32.2752 86.9938C31.1398 84.7595 30.5717 82.2138 30.5717 79.3569C30.5717 76.6096 31.1577 74.1193 32.3296 71.8849C33.5015 69.6506 35.1318 67.8925 37.2188 66.6108C39.3432 65.3291 41.7236 64.6877 44.3599 64.6877C47.0703 64.6877 49.4507 65.3291 51.502 66.6108C53.589 67.856 55.2006 69.5962 56.3359 71.8305C57.5078 74.0274 58.0938 76.5365 58.0938 79.3569C58.0938 82.1407 57.5078 84.6676 56.3359 86.9385C55.164 89.1728 53.5346 90.9309 51.4467 92.2126C49.3588 93.4578 46.9972 94.0804 44.3599 94.0804ZM44.3599 88.4218C46.5941 88.4218 48.3885 87.6164 49.7441 86.0046C51.1354 84.3563 51.8311 82.1585 51.8311 79.4122C51.8311 77.6176 51.5198 76.0424 50.8973 74.6875C50.2748 73.3317 49.3963 72.2881 48.261 71.5558C47.1256 70.786 45.8253 70.4016 44.3599 70.4016C42.1633 70.4016 40.3689 71.2258 38.9766 72.8741C37.5854 74.4859 36.8897 76.6462 36.8897 79.3569C36.8897 81.1515 37.201 82.7445 37.8235 84.1369C38.446 85.4917 39.3245 86.5541 40.4598 87.3229C41.5952 88.0552 42.8955 88.4218 44.3599 88.4218ZM69.8495 92.7621C69.8495 92.9449 69.7763 93.1099 69.6301 93.2562C69.5194 93.3659 69.3732 93.4212 69.1904 93.4212H64.3565C64.1727 93.4212 64.0077 93.3659 63.8615 93.2562C63.7518 93.1099 63.6965 92.9449 63.6965 92.7621V66.0613C63.6965 65.8785 63.7518 65.7322 63.8615 65.6225C64.0077 65.4753 64.1727 65.4022 64.3565 65.4022H68.9701C69.1538 65.4022 69.3001 65.4753 69.4098 65.6225C69.556 65.7322 69.6301 65.8785 69.6301 66.0613V69.358C71.0579 67.8194 72.5411 66.6661 74.0796 65.8973C75.6537 65.1275 77.3384 64.743 79.1329 64.743C82.2098 64.743 84.608 65.7322 86.3293 67.7097C88.0506 69.6881 88.9113 72.38 88.9113 75.7854V92.7621C88.9113 92.9449 88.8381 93.1099 88.6919 93.2562C88.5813 93.3659 88.435 93.4212 88.2522 93.4212H83.4183C83.2345 93.4212 83.0695 93.3659 82.9233 93.2562C82.8136 93.1099 82.7583 92.9449 82.7583 92.7621V76.2805C82.7583 74.4493 82.3373 73.0204 81.4954 71.9946C80.6892 70.9332 79.4807 70.4016 77.87 70.4016C75.0865 70.4016 72.4127 71.9037 69.8495 74.9069V92.7621ZM108.413 94.0804C105.702 94.0804 103.267 93.4766 101.107 92.268C98.9822 91.0218 97.3162 89.2826 96.1077 87.0482C94.9358 84.7773 94.3499 82.195 94.3499 79.3015C94.3499 76.5918 94.9171 74.138 96.0524 71.9402C97.2243 69.7059 98.836 67.9478 100.886 66.6661C102.938 65.3844 105.281 64.743 107.918 64.743C110.372 64.743 112.532 65.3112 114.4 66.4458C116.305 67.5812 117.769 69.1752 118.795 71.2258C119.857 73.2407 120.388 75.5295 120.388 78.0929C120.388 78.5327 120.351 79.265 120.278 80.2907C120.205 80.6939 119.967 80.8955 119.564 80.8955H100.502C100.759 83.3493 101.619 85.2536 103.084 86.6084C104.549 87.9642 106.361 88.6412 108.523 88.6412C111.269 88.6412 113.375 87.5423 114.84 85.3455C115.06 84.9423 115.352 84.8504 115.719 85.0707L119.454 86.9385C119.857 87.1579 119.985 87.3961 119.838 87.653C118.813 89.6304 117.33 91.2056 115.389 92.3776C113.448 93.5131 111.122 94.0804 108.413 94.0804ZM114.4 76.1708C114.18 74.1924 113.466 72.6725 112.258 71.6102C111.086 70.5113 109.621 69.9619 107.863 69.9619C106.069 69.9619 104.531 70.5301 103.249 71.6655C101.967 72.7644 101.107 74.2656 100.667 76.1708H114.4ZM138.076 94.0804C135.367 94.0804 132.968 93.4578 130.881 92.2126C128.829 90.9309 127.218 89.1728 126.046 86.9385C124.911 84.7041 124.343 82.1772 124.343 79.3569C124.343 76.573 124.929 74.064 126.101 71.8305C127.273 69.5962 128.902 67.856 130.99 66.6108C133.114 65.3291 135.494 64.6877 138.132 64.6877C140.878 64.6877 143.13 65.3112 144.888 66.5564C146.683 67.8016 148.056 69.4865 149.009 71.6102C149.082 71.7574 149.118 71.8671 149.118 71.9402C149.118 72.1962 148.971 72.38 148.679 72.4897L144.669 74.1924C144.595 74.229 144.485 74.2477 144.339 74.2477C144.083 74.2477 143.899 74.1193 143.79 73.8633C142.471 71.5558 140.585 70.4016 138.132 70.4016C136.666 70.4016 135.367 70.786 134.231 71.5558C133.096 72.3247 132.217 73.387 131.594 74.7419C130.972 76.0967 130.66 77.6354 130.66 79.3569C130.66 81.1515 130.972 82.7445 131.594 84.1369C132.217 85.4917 133.096 86.5541 134.231 87.3229C135.367 88.0552 136.648 88.4218 138.076 88.4218C140.75 88.4218 142.8 87.2132 144.229 84.796C144.449 84.4294 144.76 84.3375 145.163 84.5213L149.009 86.224C149.192 86.2972 149.32 86.4078 149.393 86.5541C149.466 86.6638 149.466 86.7922 149.393 86.9385C148.441 89.0997 147.013 90.839 145.108 92.1573C143.204 93.44 140.86 94.0804 138.076 94.0804ZM169.828 93.8057C166.605 93.2196 164.079 92.432 162.248 91.4438C160.416 90.418 159.097 89.0997 158.292 87.4879C157.486 85.8762 157.084 83.8068 157.084 81.2799V71.0064H151.975C151.791 71.0064 151.626 70.951 151.48 70.8413C151.37 70.6951 151.315 70.5301 151.315 70.3472V66.0613C151.315 65.8785 151.37 65.7322 151.48 65.6225C151.626 65.4753 151.791 65.4022 151.975 65.4022H157.084V57.9856C157.084 57.8027 157.138 57.6555 157.249 57.5458C157.395 57.3996 157.56 57.3264 157.743 57.3264H162.577C162.759 57.3264 162.907 57.3996 163.016 57.5458C163.163 57.6555 163.236 57.8027 163.236 57.9856V65.4022H171.476C171.659 65.4022 171.806 65.4753 171.915 65.6225C172.062 65.7322 172.135 65.8785 172.135 66.0613V70.3472C172.135 70.5301 172.062 70.6951 171.915 70.8413C171.806 70.951 171.659 71.0064 171.476 71.0064H163.236V80.6752C163.236 82.2869 163.456 83.5509 163.895 84.466C164.371 85.382 165.195 86.1331 166.367 86.7191C167.539 87.3051 169.316 87.8358 171.696 88.3121C172.135 88.3852 172.318 88.6412 172.245 89.081L171.421 93.4212C171.385 93.7513 171.183 93.9153 170.817 93.9153L169.828 93.8057ZM187.352 94.0804C185.118 94.0804 183.067 93.4944 181.199 92.3223C179.331 91.1137 177.83 89.411 176.695 87.2132C175.596 84.9789 175.047 82.3788 175.047 79.4122C175.047 76.5552 175.577 74.0096 176.64 71.7752C177.738 69.5409 179.24 67.8016 181.144 66.5564C183.049 65.3112 185.173 64.6877 187.517 64.6877C189.238 64.6877 190.739 65.0365 192.021 65.7322C193.303 66.3914 194.328 67.3065 195.098 68.4785V66.0613C195.098 65.8785 195.152 65.7322 195.262 65.6225C195.409 65.4753 195.573 65.4022 195.757 65.4022H200.316C200.499 65.4022 200.646 65.4753 200.756 65.6225C200.902 65.7322 200.975 65.8785 200.975 66.0613V80.6208C200.975 82.8542 201.158 84.7041 201.524 86.1696C201.891 87.5976 202.568 89.1907 203.557 90.9487C203.63 91.0959 203.667 91.2234 203.667 91.3331C203.667 91.5169 203.539 91.6819 203.282 91.8282L199.163 93.861C199.016 93.9341 198.906 93.9707 198.833 93.9707C198.65 93.9707 198.466 93.861 198.283 93.6406C197.331 92.2492 196.617 90.7293 196.141 89.081C195.225 90.583 193.999 91.7916 192.46 92.7068C190.959 93.6228 189.256 94.0804 187.352 94.0804ZM188.395 88.4218C189.787 88.4218 191.032 88.0008 192.131 87.1579C193.267 86.3159 194.164 85.1983 194.823 83.8068V77.2688C194.823 75.1816 194.237 73.5154 193.065 72.2693C191.893 71.0242 190.355 70.4016 188.451 70.4016C186.326 70.4016 184.605 71.2258 183.287 72.8741C182.005 74.4859 181.364 76.6649 181.364 79.4122C181.364 81.2434 181.657 82.8364 182.243 84.1913C182.866 85.5471 183.708 86.5906 184.77 87.3229C185.832 88.0552 187.041 88.4218 188.395 88.4218ZM219.543 94.0804C217.235 94.0804 215.111 93.4944 213.17 92.3223C211.23 91.1137 209.691 89.411 208.556 87.2132C207.421 84.9789 206.853 82.3788 206.853 79.4122C206.853 76.6284 207.403 74.1193 208.501 71.8849C209.599 69.6506 211.138 67.8925 213.115 66.6108C215.093 65.3291 217.327 64.6877 219.817 64.6877C221.539 64.6877 223.022 64.9999 224.267 65.6225C225.512 66.2451 226.538 67.0693 227.343 68.0941V53.3706C227.343 53.1877 227.398 53.0415 227.508 52.9308C227.654 52.7846 227.819 52.7114 228.002 52.7114H232.837C233.02 52.7114 233.166 52.7846 233.276 52.9308C233.423 53.0415 233.496 53.1877 233.496 53.3706V92.7621C233.496 92.9449 233.423 93.1099 233.276 93.2562C233.166 93.3659 233.02 93.4212 232.837 93.4212H228.386C228.204 93.4212 228.039 93.3659 227.892 93.2562C227.783 93.1099 227.727 92.9449 227.727 92.7621V90.2352C226.739 91.4438 225.549 92.3955 224.157 93.0912C222.765 93.7513 221.227 94.0804 219.543 94.0804ZM220.532 88.4218C221.996 88.4218 223.314 88.0552 224.486 87.3229C225.695 86.5906 226.647 85.6014 227.343 84.3563V77.2688C227.343 75.1816 226.72 73.5154 225.475 72.2693C224.23 71.0242 222.619 70.4016 220.642 70.4016C218.407 70.4016 216.594 71.2258 215.203 72.8741C213.848 74.4859 213.17 76.6649 213.17 79.4122C213.17 82.0853 213.848 84.2644 215.203 85.9493C216.558 87.5976 218.334 88.4218 220.532 88.4218ZM252.832 94.0804C250.122 94.0804 247.723 93.4578 245.636 92.2126C243.548 90.9675 241.919 89.2272 240.747 86.9938C239.611 84.7595 239.044 82.2138 239.044 79.3569C239.044 76.6096 239.63 74.1193 240.802 71.8849C241.974 69.6506 243.603 67.8925 245.69 66.6108C247.815 65.3291 250.195 64.6877 252.832 64.6877C255.542 64.6877 257.922 65.3291 259.974 66.6108C262.061 67.856 263.672 69.5962 264.808 71.8305C265.979 74.0274 266.565 76.5365 266.565 79.3569C266.565 82.1407 265.979 84.6676 264.808 86.9385C263.636 89.1728 262.006 90.9309 259.918 92.2126C257.831 93.4578 255.469 94.0804 252.832 94.0804ZM252.832 88.4218C255.066 88.4218 256.861 87.6164 258.216 86.0046C259.607 84.3563 260.303 82.1585 260.303 79.4122C260.303 77.6176 259.991 76.0424 259.369 74.6875C258.746 73.3317 257.868 72.2881 256.733 71.5558C255.597 70.786 254.297 70.4016 252.832 70.4016C250.635 70.4016 248.84 71.2258 247.449 72.8741C246.057 74.4859 245.361 76.6462 245.361 79.3569C245.361 81.1515 245.673 82.7445 246.295 84.1369C246.918 85.4917 247.797 86.5541 248.932 87.3229C250.067 88.0552 251.367 88.4218 252.832 88.4218Z" fill="var(--fill-0, white)"/>
</g>
</svg>
