<svg preserveAspectRatio="none" width="100%" height="100%" overflow="visible" style="display: block;" viewBox="0 0 29.6601 27.8052" fill="none" xmlns="http://www.w3.org/2000/svg">
<g id="Group 1597888227">
<path id="Vector" fill-rule="evenodd" clip-rule="evenodd" d="M8.08931 7.02609H13.3991C14.3766 7.02609 15.169 7.79577 15.169 8.74519V19.06C15.169 20.0095 14.3766 20.7792 13.3991 20.7792H8.08931V24.2174H13.3991C16.3316 24.2174 18.7088 21.9085 18.7088 19.06V15.6218H22.4699V12.1835H18.7088V8.74519C18.7088 5.89688 16.3316 3.58777 13.3991 3.58777H8.08931V7.02609Z" fill="var(--fill-0, white)"/>
<path id="Vector_2" fill-rule="evenodd" clip-rule="evenodd" d="M0 5.21347C0 2.33414 2.2928 0 5.12115 0C7.9495 0 10.2423 2.33414 10.2423 5.21347C10.2423 8.09281 7.9495 10.4269 5.12115 10.4269C2.2928 10.4269 0 8.09281 0 5.21347ZM5.12115 3.47563C4.17841 3.47563 3.41408 4.25367 3.41408 5.21347C3.41408 6.17321 4.17841 6.95132 5.12115 6.95132C6.06396 6.95132 6.82822 6.17321 6.82822 5.21347C6.82822 4.25367 6.06396 3.47563 5.12115 3.47563ZM3.41408 22.5917C3.41408 23.5515 4.17841 24.3295 5.12115 24.3295C6.06396 24.3295 6.82822 23.5515 6.82822 22.5917C6.82822 21.6319 6.06396 20.8539 5.12115 20.8539C4.17841 20.8539 3.41408 21.6319 3.41408 22.5917ZM5.12115 17.3783C2.2928 17.3783 0 19.7123 0 22.5917C0 25.4711 2.2928 27.8052 5.12115 27.8052C7.9495 27.8052 10.2423 25.4711 10.2423 22.5917C10.2423 19.7123 7.9495 17.3783 5.12115 17.3783ZM24.5388 15.6404C23.596 15.6404 22.8318 14.8624 22.8318 13.9026C22.8318 12.9428 23.596 12.1648 24.5388 12.1648C25.4816 12.1648 26.2459 12.9428 26.2459 13.9026C26.2459 14.8624 25.4816 15.6404 24.5388 15.6404ZM19.4177 13.9026C19.4177 11.0232 21.7104 8.6891 24.5388 8.6891C27.3672 8.6891 29.66 11.0232 29.66 13.9026C29.66 16.782 27.3672 19.116 24.5388 19.116C21.7104 19.116 19.4177 16.782 19.4177 13.9026Z" fill="var(--fill-0, white)"/>
</g>
</svg>
