<svg width="7" height="12" viewBox="0 0 7 12" fill="none" xmlns="http://www.w3.org/2000/svg">
<path d="M0.1875 1.75781C0.0625 1.60156 0.015625 1.42969 0.046875 1.24219C0.078125 1.03906 0.171875 0.875 0.328125 0.75L1.10156 0.164062C1.25781 0.0546875 1.42969 0.015625 1.61719 0.046875C1.82031 0.0625 1.98438 0.15625 2.10938 0.328125L5.95313 5.48437C6.0625 5.60937 6.10938 5.75781 6.09375 5.92969C6.09375 6.08594 6.04688 6.22656 5.95313 6.35156L2.08594 11.2031C1.96094 11.3594 1.79688 11.4531 1.59375 11.4844C1.40625 11.5 1.23438 11.4453 1.07813 11.3203L0.328125 10.7344C0.171875 10.6094 0.078125 10.4531 0.046875 10.2656C0.03125 10.0625 0.0859375 9.88281 0.210938 9.72656L3.25781 5.88281L0.1875 1.75781Z" fill="#EB0033"/>
</svg>
