<svg preserveAspectRatio="none" width="100%" height="100%" overflow="visible" style="display: block;" viewBox="0 0 7.6375 16" fill="none" xmlns="http://www.w3.org/2000/svg">
<g id="Icon" clip-path="url(#clip0_4948_12612)">
<path id="icon-chevron-up" d="M6.49062 6.07344C6.59479 5.9901 6.71458 5.95885 6.85 5.97969C6.975 6.00052 7.07917 6.06302 7.1625 6.16719L7.5375 6.68281C7.62083 6.78698 7.65208 6.90156 7.63125 7.02656C7.61042 7.16198 7.54792 7.27135 7.44375 7.35469L4.00625 9.93281C3.92292 9.99531 3.82917 10.0266 3.725 10.0266C3.61042 10.0266 3.50625 9.9901 3.4125 9.91719L0.178125 7.33906C0.0739582 7.26615 0.0166666 7.16198 0.0062499 7.02656C-0.0145834 6.89115 0.0166666 6.77135 0.0999999 6.66719L0.50625 6.16719C0.589583 6.06302 0.698958 6.00052 0.834375 5.97969C0.959375 5.96927 1.07396 6.00573 1.17812 6.08906L3.74062 8.13594L6.49062 6.07344Z" fill="var(--fill-0, white)"/>
</g>
<defs>
<clipPath id="clip0_4948_12612">
<rect width="7.6375" height="16" fill="white"/>
</clipPath>
</defs>
</svg>
