<svg width="29" height="26" viewBox="0 0 29 26" fill="none" xmlns="http://www.w3.org/2000/svg">
<path fill-rule="evenodd" clip-rule="evenodd" d="M6.401 12.6238C11.3527 12.6238 14.7867 7.8978 14.7867 4.03612C14.7867 1.22907 12.2495 0 9.835 0C4.40037 0 1.44922 5.08282 1.44922 8.58767C1.44922 11.3947 4.01713 12.6238 6.40868 12.6238" fill="#EB0033"/>
<path fill-rule="evenodd" clip-rule="evenodd" d="M19.6304 12.6238C24.5821 12.6238 28.016 7.8978 28.016 4.03612C28.016 1.22907 25.4712 0 23.0567 0C17.6297 0 14.6709 5.08282 14.6709 8.58767C14.6709 11.3947 17.2388 12.6238 19.6304 12.6238Z" fill="#EB0033"/>
<path fill-rule="evenodd" clip-rule="evenodd" d="M21.9148 21.4655C18.8487 24.1932 14.7478 25.5968 10.2943 25.3113C4.67572 24.9465 0.781851 20.4029 0 15.7879H0.268263C1.53302 18.7377 4.60673 21.4575 8.47 21.9016C12.2413 22.3377 16.8557 20.5536 19.3929 18.0161L16.5492 15.7642L24.9885 15.7879L23.1719 25.1368L21.9148 21.4734V21.4655Z" fill="#EB0033"/>
</svg>
