<svg width="210" height="106" viewBox="0 0 210 106" fill="none" xmlns="http://www.w3.org/2000/svg">
<path d="M123.888 105.303C113.083 105.303 104.324 96.5444 104.324 85.74L104.324 20.0779C104.324 9.27343 113.083 0.514625 123.888 0.514397L189.55 0.514403C200.354 0.514655 209.112 9.27345 209.112 20.0779L209.112 85.74C209.112 96.5444 200.354 105.303 189.55 105.303L123.888 105.303Z" fill="#F5E5DF"/>
<path d="M19.5635 104.789C8.75905 104.789 7.65737e-07 96.03 1.71029e-06 85.2256L7.45066e-06 19.5635C8.39521e-06 8.759 8.75906 0.00018234 19.5635 -7.45057e-06L85.2246 -1.71029e-06C96.0292 -7.65726e-07 104.788 8.75889 104.788 19.5635L104.788 85.2256C104.788 96.0302 96.0292 104.789 85.2246 104.789L19.5635 104.789Z" fill="#EB0033"/>
<path fill-rule="evenodd" clip-rule="evenodd" d="M134.868 42.1585H129.684L130.518 38.0647H135.705L134.868 42.1585ZM131.511 58.5944H126.327L129.228 44.3852H134.411L131.51 58.5944H131.511Z" fill="#EB0033"/>
<path fill-rule="evenodd" clip-rule="evenodd" d="M133.428 62.3962H138.584L141.711 47.1458H145.473L146.064 44.3359H142.268L142.396 43.6869C142.637 42.4875 143.033 41.0865 144.974 41.0865C146.126 41.0865 147.228 41.2099 148.3 41.6573L148.885 38.6876C147.714 38.2742 146.425 38.0647 145.173 38.0647C141.033 38.0647 138.181 40.5122 137.133 44.3359H135.345L134.783 47.1458H136.547L133.425 62.3962H133.429H133.428Z" fill="#EB0033"/>
<path fill-rule="evenodd" clip-rule="evenodd" d="M149.584 58.8477C155.602 58.8477 159.783 53.3409 159.783 48.8498C159.783 45.5812 156.692 44.1474 153.76 44.1474C147.155 44.1474 143.562 50.0677 143.562 54.1452C143.562 57.4139 146.68 58.8477 149.588 58.8477H149.584Z" fill="#EB0033"/>
<path fill-rule="evenodd" clip-rule="evenodd" d="M165.56 58.8477C171.579 58.8477 175.75 53.3409 175.75 48.8498C175.75 45.5812 172.657 44.1474 169.724 44.1474C163.123 44.1474 159.529 50.0677 159.529 54.1452C159.529 57.4139 162.653 58.8477 165.556 58.8477H165.56Z" fill="#EB0033"/>
<path fill-rule="evenodd" clip-rule="evenodd" d="M184.054 58.5255H189.145L193.238 38.3187H188.114L186.895 44.3233C186.231 44.1909 185.539 44.087 184.826 44.087C179.805 44.087 175.243 50.5058 175.243 55.0988C175.243 56.9862 176.462 58.8484 178.535 58.8484C181.479 58.8484 183.519 57.4004 184.365 56.039H184.684L184.054 58.5301H184.05L184.054 58.5255Z" fill="#EB0033"/>
<path fill-rule="evenodd" clip-rule="evenodd" d="M168.245 69.1871C164.545 72.4355 159.595 74.0985 154.217 73.7587C147.438 73.3265 142.734 67.9171 141.788 62.4268H142.109C143.634 65.9341 147.347 69.1652 152.009 69.6979C156.56 70.2179 162.131 68.0974 165.194 65.0709L161.761 62.3968L171.949 62.4257L169.758 73.5438L168.241 69.1814L168.245 69.186V69.1871Z" fill="#EB0033"/>
<path d="M63.6782 77.7217C62.731 77.7217 61.8897 77.5099 61.1544 77.0861C60.419 76.6624 59.8395 76.0704 59.4158 75.3101C59.0045 74.5374 58.7988 73.6525 58.7988 72.6555C58.7988 71.7083 58.992 70.8545 59.3784 70.0943C59.7772 69.334 60.3318 68.7358 61.0422 68.2996C61.7651 67.8634 62.5876 67.6453 63.5099 67.6453C64.3823 67.6453 65.1426 67.8447 65.7907 68.2435C66.4512 68.6423 66.9622 69.1907 67.3236 69.8886C67.6851 70.5866 67.8658 71.3842 67.8658 72.2816C67.8658 72.4436 67.8533 72.6991 67.8284 73.0481C67.8159 73.2101 67.7225 73.2911 67.548 73.2911H61.36C61.4473 74.0015 61.709 74.5561 62.1452 74.9549C62.5814 75.3537 63.1236 75.5532 63.7716 75.5532C64.5942 75.5532 65.2298 75.2229 65.6785 74.5623C65.7782 74.4252 65.8966 74.3941 66.0337 74.4689L67.5667 75.198C67.7287 75.2852 67.7848 75.3787 67.7349 75.4784C67.386 76.1638 66.8687 76.7122 66.1833 77.1235C65.4978 77.5223 64.6628 77.7217 63.6782 77.7217ZM65.4168 71.5151C65.3545 70.9293 65.1488 70.4806 64.7998 70.1691C64.4509 69.845 64.0147 69.683 63.4912 69.683C62.9678 69.683 62.5191 69.8512 62.1452 70.1878C61.7838 70.5118 61.5345 70.9542 61.3974 71.5151H65.4168Z" fill="#F5E5DF"/>
<path d="M51.9558 77.7217C51.1706 77.7217 50.454 77.5223 49.8059 77.1235C49.1578 76.7122 48.6406 76.1264 48.2542 75.3662C47.8803 74.6059 47.6934 73.7148 47.6934 72.6928C47.6934 71.7332 47.8803 70.8732 48.2542 70.1129C48.6281 69.3402 49.1453 68.7358 49.8059 68.2995C50.4664 67.8633 51.2204 67.6452 52.0679 67.6452C53.1647 67.6452 53.981 68.0129 54.5169 68.7482V63.8876C54.5169 63.7131 54.6042 63.6259 54.7787 63.6259H56.7977C56.9722 63.6259 57.0594 63.7131 57.0594 63.8876V77.217C57.0594 77.3914 56.9722 77.4787 56.7977 77.4787H54.9095C54.7351 77.4787 54.6478 77.3914 54.6478 77.217V76.4131C54.3487 76.8244 53.9623 77.1484 53.4887 77.3852C53.0276 77.6095 52.5166 77.7217 51.9558 77.7217ZM52.4605 75.3849C52.8967 75.3849 53.2893 75.2789 53.6383 75.0671C53.9997 74.8427 54.2926 74.5374 54.5169 74.151V72.0946C54.5169 71.4465 54.33 70.9355 53.9561 70.5616C53.5947 70.1753 53.1086 69.9821 52.4979 69.9821C51.8374 69.9821 51.3014 70.2251 50.8902 70.7112C50.4789 71.1848 50.2732 71.8391 50.2732 72.6741C50.2732 73.5092 50.4726 74.1697 50.8715 74.6558C51.2828 75.1418 51.8124 75.3849 52.4605 75.3849Z" fill="#F5E5DF"/>
<path d="M42.2905 77.7217C41.3433 77.7217 40.502 77.5099 39.7667 77.0861C39.0313 76.6624 38.4518 76.0704 38.0281 75.3101C37.6168 74.5374 37.4111 73.6525 37.4111 72.6555C37.4111 71.7083 37.6043 70.8545 37.9907 70.0943C38.3895 69.334 38.9441 68.7358 39.6545 68.2996C40.3774 67.8634 41.1999 67.6453 42.1222 67.6453C42.9946 67.6453 43.7549 67.8447 44.403 68.2435C45.0635 68.6423 45.5745 69.1907 45.936 69.8886C46.2974 70.5866 46.4781 71.3842 46.4781 72.2816C46.4781 72.4436 46.4656 72.6991 46.4407 73.0481C46.4282 73.2101 46.3348 73.2911 46.1603 73.2911H39.9723C40.0596 74.0015 40.3213 74.5561 40.7575 74.9549C41.1937 75.3537 41.7359 75.5532 42.3839 75.5532C43.2065 75.5532 43.8421 75.2229 44.2908 74.5623C44.3905 74.4252 44.5089 74.3941 44.646 74.4689L46.179 75.198C46.341 75.2852 46.3971 75.3787 46.3472 75.4784C45.9983 76.1638 45.481 76.7122 44.7956 77.1235C44.1101 77.5223 43.2751 77.7217 42.2905 77.7217ZM44.0291 71.5151C43.9668 70.9293 43.7611 70.4806 43.4122 70.1691C43.0632 69.845 42.627 69.683 42.1035 69.683C41.5801 69.683 41.1314 69.8512 40.7575 70.1878C40.3961 70.5118 40.1468 70.9542 40.0097 71.5151H44.0291Z" fill="#F5E5DF"/>
<path d="M29.353 81.2364C29.353 81.4108 29.2658 81.4981 29.0913 81.4981H27.0723C26.8978 81.4981 26.8105 81.4108 26.8105 81.2364L26.8105 68.15C26.8105 67.9755 26.8978 67.8883 27.0723 67.8883H28.9604C29.1349 67.8883 29.2222 67.9755 29.2222 68.15V68.9726C29.5338 68.5488 29.9263 68.2248 30.3999 68.0005C30.8735 67.7637 31.397 67.6453 31.9703 67.6453C32.7555 67.6453 33.4659 67.8509 34.1015 68.2622C34.7496 68.661 35.2606 69.2405 35.6345 70.0008C36.0084 70.7611 36.1953 71.6584 36.1953 72.6929C36.1953 73.6401 36.0084 74.5 35.6345 75.2727C35.273 76.033 34.7621 76.6312 34.1015 77.0674C33.441 77.5036 32.6932 77.7217 31.8581 77.7217C30.7489 77.7217 29.9139 77.3541 29.353 76.6188L29.353 81.2364ZM31.4282 75.3849C32.0638 75.3849 32.581 75.1481 32.9798 74.6745C33.3911 74.1884 33.5967 73.5279 33.5967 72.6929C33.5967 71.8578 33.4036 71.1973 33.0172 70.7112C32.6309 70.2251 32.1136 69.9821 31.4655 69.9821C31.0293 69.9821 30.6243 70.0943 30.2504 70.3186C29.8765 70.5305 29.5774 70.8296 29.353 71.216V73.2724C29.353 73.9205 29.5462 74.4377 29.9326 74.8241C30.3189 75.198 30.8175 75.3849 31.4282 75.3849Z" fill="#F5E5DF"/>
<path d="M83.4023 57.8356C82.505 57.8356 81.7074 57.6237 81.0094 57.2C80.3239 56.7762 79.788 56.1905 79.4017 55.4427C79.0278 54.6824 78.8408 53.8225 78.8408 52.8628C78.8408 51.9405 79.034 51.1055 79.4204 50.3577C79.8067 49.5974 80.3489 49.0054 81.0468 48.5817C81.7447 48.1455 82.5299 47.9274 83.4023 47.9274C84.2872 47.9274 85.0724 48.1392 85.7579 48.563C86.4558 48.9867 86.9917 49.5725 87.3656 50.3203C87.752 51.0681 87.9452 51.9156 87.9452 52.8628C87.9452 53.7975 87.7458 54.645 87.3469 55.4053C86.9606 56.1655 86.4184 56.7638 85.7205 57.2C85.035 57.6237 84.2623 57.8356 83.4023 57.8356ZM83.4023 56.2839C83.9507 56.2839 84.4368 56.1468 84.8605 55.8726C85.2967 55.586 85.6333 55.1872 85.8701 54.6762C86.1069 54.1527 86.2253 53.5483 86.2253 52.8628C86.2253 52.1898 86.1069 51.5978 85.8701 51.0868C85.6333 50.5758 85.2967 50.1832 84.8605 49.909C84.4368 49.6224 83.9507 49.479 83.4023 49.479C82.854 49.479 82.3617 49.6224 81.9255 49.909C81.5017 50.1832 81.1652 50.5758 80.9159 51.0868C80.6791 51.5978 80.5607 52.1898 80.5607 52.8628C80.5607 53.5483 80.6791 54.1527 80.9159 54.6762C81.1652 55.1872 81.5017 55.586 81.9255 55.8726C82.3617 56.1468 82.854 56.2839 83.4023 56.2839Z" fill="#F5E5DF"/>
<path d="M77.1851 57.443C77.1851 57.4928 77.1664 57.5365 77.129 57.5738C77.104 57.6112 77.0604 57.6299 76.9981 57.6299H75.6895C75.6396 57.6299 75.596 57.6112 75.5586 57.5738C75.5212 57.5365 75.5025 57.4928 75.5025 57.443V48.3199C75.5025 48.2576 75.5212 48.214 75.5586 48.1891C75.596 48.1517 75.6396 48.133 75.6895 48.133H76.9981C77.0604 48.133 77.104 48.1517 77.129 48.1891C77.1664 48.214 77.1851 48.2576 77.1851 48.3199V57.443ZM76.3438 46.0392C75.9948 46.0392 75.7082 45.9332 75.4838 45.7214C75.272 45.5095 75.166 45.2291 75.166 44.8801C75.166 44.556 75.272 44.2943 75.4838 44.0949C75.7082 43.883 75.9948 43.7771 76.3438 43.7771C76.6928 43.7771 76.9732 43.883 77.1851 44.0949C77.3969 44.2943 77.5029 44.5623 77.5029 44.8988C77.5029 45.2353 77.3969 45.5095 77.1851 45.7214C76.9732 45.9332 76.6928 46.0392 76.3438 46.0392Z" fill="#F5E5DF"/>
<path d="M70.4841 57.8356C69.5992 57.8356 68.814 57.6237 68.1286 57.2C67.4431 56.7762 66.9072 56.1842 66.5208 55.424C66.1469 54.6637 65.96 53.81 65.96 52.8628C65.96 51.928 66.1531 51.0868 66.5395 50.339C66.9383 49.5787 67.4805 48.9867 68.1659 48.563C68.8514 48.1392 69.6304 47.9274 70.5028 47.9274C72.1853 47.9274 73.3693 48.6689 74.0548 50.152C74.0673 50.177 74.0735 50.2081 74.0735 50.2455C74.0735 50.3078 74.0361 50.3577 73.9613 50.3951L72.8957 50.8811C72.8708 50.8936 72.8396 50.8998 72.8022 50.8998C72.7524 50.8998 72.6963 50.8687 72.634 50.8064C72.1355 49.9215 71.4251 49.479 70.5028 49.479C69.9544 49.479 69.4621 49.6286 69.0259 49.9277C68.6022 50.2144 68.2719 50.6194 68.0351 51.1429C67.7983 51.6539 67.6799 52.2272 67.6799 52.8628C67.6799 53.5358 67.7983 54.134 68.0351 54.6575C68.2719 55.1685 68.6022 55.5673 69.0259 55.854C69.4496 56.1406 69.9357 56.2839 70.4841 56.2839C71.4811 56.2839 72.2539 55.829 72.8022 54.9192C72.8272 54.8694 72.8646 54.8382 72.9144 54.8257C72.9643 54.8133 73.0141 54.8195 73.064 54.8444L74.0735 55.3679C74.1732 55.4302 74.2106 55.4987 74.1857 55.5735C73.8741 56.259 73.4005 56.8074 72.7649 57.2187C72.1417 57.63 71.3814 57.8356 70.4841 57.8356Z" fill="#F5E5DF"/>
<path d="M60.3047 57.8356C59.4073 57.8356 58.6097 57.6237 57.9118 57.1999C57.2263 56.7762 56.6904 56.1904 56.304 55.4426C55.9301 54.6824 55.7432 53.8224 55.7432 52.8628C55.7432 51.9405 55.9363 51.1054 56.3227 50.3577C56.7091 49.5974 57.2512 49.0054 57.9491 48.5817C58.6471 48.1454 59.4323 47.9273 60.3047 47.9273C61.1896 47.9273 61.9748 48.1392 62.6602 48.563C63.3582 48.9867 63.8941 49.5725 64.268 50.3203C64.6543 51.0681 64.8475 51.9156 64.8475 52.8628C64.8475 53.7975 64.6481 54.645 64.2493 55.4052C63.8629 56.1655 63.3208 56.7637 62.6228 57.1999C61.9374 57.6237 61.1646 57.8356 60.3047 57.8356ZM60.3047 56.2839C60.8531 56.2839 61.3391 56.1468 61.7629 55.8726C62.1991 55.586 62.5356 55.1871 62.7724 54.6761C63.0092 54.1527 63.1276 53.5482 63.1276 52.8628C63.1276 52.1897 63.0092 51.5977 62.7724 51.0868C62.5356 50.5758 62.1991 50.1832 61.7629 49.909C61.3391 49.6223 60.8531 49.479 60.3047 49.479C59.7563 49.479 59.264 49.6223 58.8278 49.909C58.4041 50.1832 58.0675 50.5758 57.8183 51.0868C57.5815 51.5977 57.4631 52.1897 57.4631 52.8628C57.4631 53.5482 57.5815 54.1527 57.8183 54.6761C58.0675 55.1871 58.4041 55.586 58.8278 55.8726C59.264 56.1468 59.7563 56.2839 60.3047 56.2839ZM62.735 44.5249C62.7475 44.5498 62.7537 44.581 62.7537 44.6184C62.7537 44.6931 62.7225 44.7492 62.6602 44.7866L59.2765 46.6C59.2266 46.6249 59.1892 46.6374 59.1643 46.6374C59.102 46.6374 59.0521 46.6062 59.0148 46.5439L58.6222 45.8522C58.5972 45.8024 58.5848 45.765 58.5848 45.74C58.5848 45.6902 58.6159 45.6466 58.6782 45.6092L61.8564 43.4406C61.8813 43.4157 61.9187 43.4032 61.9685 43.4032C62.0308 43.4032 62.0807 43.4344 62.1181 43.4967L62.735 44.5249Z" fill="#F5E5DF"/>
<path d="M50.8341 61.8363C49.9119 61.8363 49.1017 61.7054 48.4038 61.4437C47.7183 61.1944 47.1886 60.833 46.8147 60.3594C46.4409 59.8982 46.2539 59.3623 46.2539 58.7516C46.2539 58.44 46.3162 58.1035 46.4409 57.7421C46.578 57.3931 46.7774 56.9943 47.0391 56.5456L48.4412 54.1527C47.8679 53.8536 47.4192 53.4548 47.0952 52.9562C46.7836 52.4453 46.6278 51.8782 46.6278 51.255C46.6278 50.6319 46.8023 50.071 47.1513 49.5725C47.5127 49.0615 47.9988 48.6627 48.6094 48.376C49.2201 48.0769 49.9056 47.9273 50.6659 47.9273C51.127 47.9273 51.6068 47.9897 52.1054 48.1143C52.6039 47.4039 53.3018 46.8119 54.1992 46.3383L54.2927 46.3009C54.355 46.3009 54.4111 46.3383 54.4609 46.4131L55.0591 47.4787C55.0716 47.5036 55.0778 47.5348 55.0778 47.5721C55.0778 47.6345 55.0405 47.6843 54.9657 47.7217C54.5793 47.8837 54.2615 48.0395 54.0122 48.1891C53.7754 48.3262 53.5573 48.5007 53.3579 48.7125C53.7941 49.0116 54.1306 49.3855 54.3674 49.8342C54.6167 50.2704 54.7413 50.744 54.7413 51.255C54.7413 51.9031 54.5606 52.4889 54.1992 53.0123C53.8502 53.5233 53.3642 53.9284 52.741 54.2275C52.1303 54.5141 51.4386 54.6575 50.6659 54.6575C50.3917 54.6575 50.1113 54.6388 49.8246 54.6014L49.0768 55.91L52.8158 56.5082C53.6508 56.6329 54.2927 56.8946 54.7413 57.2934C55.19 57.6923 55.4143 58.1908 55.4143 58.789C55.4143 59.3748 55.2274 59.8982 54.8535 60.3594C54.4921 60.8205 53.9624 61.1819 53.2644 61.4437C52.579 61.7054 51.7689 61.8363 50.8341 61.8363ZM50.6659 53.1993C51.3763 53.1993 51.9558 53.0186 52.4045 52.6571C52.8656 52.2832 53.0962 51.8159 53.0962 51.255C53.0962 50.7066 52.8656 50.2642 52.4045 49.9277C51.9558 49.5912 51.3763 49.4229 50.6659 49.4229C49.9679 49.4229 49.3946 49.5912 48.946 49.9277C48.4973 50.2642 48.2729 50.7066 48.2729 51.255C48.2729 51.8283 48.4973 52.2957 48.946 52.6571C49.3946 53.0186 49.9679 53.1993 50.6659 53.1993ZM50.8902 60.3968C51.8125 60.3968 52.5167 60.2659 53.0027 60.0042C53.5012 59.7424 53.7505 59.381 53.7505 58.9199C53.7505 58.4587 53.3143 58.1534 52.4419 58.0038L48.3103 57.2747C47.9988 57.7733 47.843 58.2282 47.843 58.6395C47.843 59.1878 48.1109 59.6178 48.6468 59.9294C49.1952 60.241 49.943 60.3968 50.8902 60.3968Z" fill="#F5E5DF"/>
<path d="M41.46 57.8356C40.5626 57.8356 39.7525 57.63 39.0296 57.2187C38.3192 56.7949 37.7646 56.2092 37.3658 55.4614C36.967 54.7011 36.7676 53.8349 36.7676 52.8628C36.7676 51.953 36.9608 51.1242 37.3471 50.3764C37.7459 49.6161 38.2881 49.0179 38.9736 48.5817C39.6715 48.1455 40.4504 47.9274 41.3104 47.9274C42.1205 47.9274 42.8371 48.1205 43.4603 48.5069C44.0959 48.8933 44.5882 49.4292 44.9372 50.1147C45.2862 50.7877 45.4606 51.5479 45.4606 52.3954C45.4606 52.5948 45.442 52.8379 45.4046 53.1245C45.4046 53.2367 45.3422 53.2928 45.2176 53.2928H38.4501C38.5374 54.2275 38.8552 54.9628 39.4035 55.4988C39.9644 56.0222 40.6499 56.2839 41.46 56.2839C42.5193 56.2839 43.3107 55.8664 43.8342 55.0314C43.8591 54.9815 43.8965 54.9504 43.9464 54.9379C43.9962 54.9254 44.0461 54.9317 44.0959 54.9566L45.1241 55.4801C45.2238 55.5424 45.2612 55.6109 45.2363 55.6857C44.8873 56.3338 44.3888 56.8572 43.7407 57.2561C43.1051 57.6424 42.3449 57.8356 41.46 57.8356ZM43.7968 51.8346C43.722 51.0992 43.4541 50.5259 42.9929 50.1147C42.5318 49.6909 41.9585 49.479 41.273 49.479C40.5875 49.479 39.9955 49.6971 39.497 50.1334C39.011 50.5571 38.6869 51.1242 38.5249 51.8346H43.7968Z" fill="#F5E5DF"/>
<path d="M28.662 57.443C28.662 57.4928 28.6433 57.5365 28.6059 57.5739C28.581 57.6112 28.5374 57.6299 28.4751 57.6299H27.1664C27.1166 57.6299 27.073 57.6112 27.0356 57.5739C26.9982 57.5365 26.9795 57.4928 26.9795 57.443V48.3199C26.9795 48.2576 26.9982 48.214 27.0356 48.1891C27.073 48.1517 27.1166 48.133 27.1664 48.133H28.419C28.4813 48.133 28.5249 48.1517 28.5499 48.1891C28.5872 48.214 28.6059 48.2576 28.6059 48.3199V49.5538C29.1045 49.0179 29.6217 48.6191 30.1576 48.3573C30.6935 48.0831 31.2731 47.946 31.8962 47.946C32.9182 47.946 33.7158 48.2763 34.2891 48.9369C34.8749 49.5974 35.1678 50.4885 35.1678 51.6102V57.443C35.1678 57.4928 35.1491 57.5365 35.1117 57.5739C35.0868 57.6112 35.0432 57.6299 34.9809 57.6299H33.6722C33.6224 57.6299 33.5787 57.6112 33.5414 57.5739C33.504 57.5365 33.4853 57.4928 33.4853 57.443V51.7037C33.4853 51.0182 33.3233 50.4823 32.9992 50.0959C32.6876 49.6971 32.2327 49.4977 31.6345 49.4977C30.625 49.4977 29.6342 50.0648 28.662 51.1989V57.443Z" fill="#F5E5DF"/>
<path d="M49.9938 38.4771C48.9095 38.4771 48.0558 38.1468 47.4326 37.4863C46.8219 36.8257 46.5166 35.9035 46.5166 34.7195V28.9802C46.5166 28.9178 46.5353 28.8742 46.5727 28.8493C46.6101 28.8119 46.6537 28.7932 46.7035 28.7932H48.0122C48.0745 28.7932 48.1181 28.8119 48.143 28.8493C48.1804 28.8742 48.1991 28.9178 48.1991 28.9802V34.626C48.1991 35.3862 48.3736 35.9658 48.7226 36.3646C49.0716 36.751 49.5701 36.9441 50.2182 36.9441C50.7416 36.9441 51.2277 36.7946 51.6764 36.4955C52.125 36.1963 52.5239 35.8038 52.8728 35.3177V28.9802C52.8728 28.9178 52.8915 28.8742 52.9289 28.8493C52.9663 28.8119 53.0099 28.7932 53.0598 28.7932H54.3684C54.4307 28.7932 54.4743 28.8119 54.4993 28.8493C54.5367 28.8742 54.5554 28.9178 54.5554 28.9802V38.1032C54.5554 38.1531 54.5367 38.1967 54.4993 38.2341C54.4743 38.2715 54.4307 38.2902 54.3684 38.2902H53.1532C53.1034 38.2902 53.0598 38.2715 53.0224 38.2341C52.985 38.1967 52.9663 38.1531 52.9663 38.1032V36.8881C52.6049 37.3617 52.1749 37.748 51.6764 38.0471C51.1778 38.3338 50.617 38.4771 49.9938 38.4771Z" fill="#F5E5DF"/>
<path d="M40.917 38.4958C40.0196 38.4958 39.2095 38.2901 38.4867 37.8788C37.7763 37.4551 37.2217 36.8693 36.8228 36.1215C36.424 35.3613 36.2246 34.4951 36.2246 33.5229C36.2246 32.6131 36.4178 31.7843 36.8041 31.0365C37.203 30.2763 37.7451 29.6781 38.4306 29.2418C39.1285 28.8056 39.9075 28.5875 40.7674 28.5875C41.5775 28.5875 42.2942 28.7807 42.9173 29.1671C43.553 29.5534 44.0453 30.0893 44.3942 30.7748C44.7432 31.4478 44.9177 32.2081 44.9177 33.0556C44.9177 33.255 44.899 33.498 44.8616 33.7847C44.8616 33.8968 44.7993 33.9529 44.6746 33.9529H37.9071C37.9944 34.8877 38.3122 35.623 38.8606 36.1589C39.4214 36.6824 40.1069 36.9441 40.917 36.9441C41.9764 36.9441 42.7678 36.5266 43.2912 35.6915C43.3162 35.6417 43.3536 35.6105 43.4034 35.5981C43.4533 35.5856 43.5031 35.5918 43.553 35.6168L44.5812 36.1402C44.6809 36.2025 44.7183 36.2711 44.6933 36.3459C44.3444 36.9939 43.8458 37.5174 43.1978 37.9162C42.5621 38.3026 41.8019 38.4958 40.917 38.4958ZM43.2538 32.4947C43.1791 31.7594 42.9111 31.1861 42.45 30.7748C41.9888 30.3511 41.4155 30.1392 40.7301 30.1392C40.0446 30.1392 39.4526 30.3573 38.954 30.7935C38.468 31.2173 38.1439 31.7843 37.9819 32.4947H43.2538Z" fill="#F5E5DF"/>
<path d="M30.7372 38.4958C29.6653 38.4958 28.7431 38.2652 27.9703 37.8041C27.1976 37.3305 26.6119 36.6574 26.213 35.785C26.2006 35.7601 26.1943 35.7289 26.1943 35.6915C26.1943 35.6292 26.2317 35.5794 26.3065 35.542L27.3908 34.9811C27.4157 34.9687 27.4469 34.9625 27.4843 34.9625C27.5591 34.9625 27.6151 34.9998 27.6525 35.0746C27.989 35.6853 28.4066 36.1402 28.9051 36.4393C29.4036 36.7385 30.0143 36.888 30.7372 36.888C31.6096 36.888 32.2888 36.7011 32.7749 36.3272C33.2734 35.9408 33.5227 35.4111 33.5227 34.7381C33.5227 34.1025 33.2921 33.5977 32.831 33.2238C32.3698 32.8375 31.6283 32.4947 30.6063 32.1956C29.3351 31.8217 28.3318 31.3419 27.5964 30.7561C26.8736 30.1579 26.5121 29.3166 26.5121 28.2323C26.5121 27.5593 26.6866 26.9486 27.0356 26.4002C27.3846 25.8394 27.8831 25.397 28.5312 25.0729C29.1917 24.7489 29.952 24.5869 30.8119 24.5869C31.8589 24.5869 32.7313 24.805 33.4292 25.2412C34.1396 25.6774 34.688 26.2632 35.0744 26.9985C35.0868 27.0234 35.093 27.0546 35.093 27.092C35.093 27.1543 35.0557 27.2041 34.9809 27.2415L33.8779 27.821C33.853 27.8335 33.8218 27.8397 33.7844 27.8397C33.7096 27.8397 33.6536 27.8086 33.6162 27.7463C33.2921 27.2353 32.9058 26.8489 32.4571 26.5872C32.0084 26.3255 31.46 26.1946 30.8119 26.1946C30.0143 26.1946 29.3911 26.3816 28.9425 26.7554C28.4938 27.1293 28.2695 27.6154 28.2695 28.2136C28.2695 28.7745 28.4813 29.2232 28.9051 29.5597C29.3413 29.8837 30.0143 30.1828 30.9241 30.457C31.809 30.7312 32.5568 31.0241 33.1675 31.3357C33.7782 31.6348 34.2829 32.0585 34.6818 32.6069C35.0806 33.1553 35.28 33.8532 35.28 34.7007C35.28 35.4361 35.093 36.0904 34.7192 36.6637C34.3577 37.237 33.8343 37.6857 33.1488 38.0097C32.4633 38.3337 31.6594 38.4958 30.7372 38.4958Z" fill="#F5E5DF"/>
<rect x="102.905" y="42.5167" width="16.6709" height="16.6709" rx="4.5648" transform="rotate(45 102.905 42.5167)" fill="#EB0033"/>
</svg>
