<svg preserveAspectRatio="none" width="100%" height="100%" overflow="visible" style="display: block;" viewBox="0 0 28.0163 25.3477" fill="none" xmlns="http://www.w3.org/2000/svg">
<g id="Group 52769634">
<path id="Vector" fill-rule="evenodd" clip-rule="evenodd" d="M6.40053 12.6238C11.3522 12.6238 14.7862 7.8978 14.7862 4.03612C14.7862 1.22907 12.2491 0 9.83452 0C4.39989 0 1.44874 5.08282 1.44874 8.58767C1.44874 11.3947 4.01665 12.6238 6.4082 12.6238" fill="var(--fill-0, #EB0033)"/>
<path id="Vector_2" fill-rule="evenodd" clip-rule="evenodd" d="M19.6306 12.6238C24.5823 12.6238 28.0163 7.8978 28.0163 4.03612C28.0163 1.22907 25.4715 0 23.0569 0C17.63 0 14.6711 5.08282 14.6711 8.58767C14.6711 11.3947 17.239 12.6238 19.6306 12.6238Z" fill="var(--fill-0, #EB0033)"/>
<path id="Vector_3" fill-rule="evenodd" clip-rule="evenodd" d="M21.9148 21.4655C18.8487 24.1933 14.7478 25.5968 10.2943 25.3113C4.67574 24.9466 0.78187 20.403 1.90735e-05 15.788H0.268283C1.53304 18.7378 4.60675 21.4576 8.47001 21.9016C12.2413 22.3378 16.8557 20.5536 19.3929 18.0162L16.5492 15.7642L24.9886 15.788L23.1719 25.1369L21.9148 21.4735V21.4655Z" fill="var(--fill-0, #EB0033)"/>
</g>
</svg>
