<svg preserveAspectRatio="none" width="100%" height="100%" overflow="visible" style="display: block;" viewBox="0 0 55.0747 30.4622" fill="none" xmlns="http://www.w3.org/2000/svg">
<g id="Group 52769634">
<path id="Vector" fill-rule="evenodd" clip-rule="evenodd" d="M6.90639 3.48106H2.71355L3.38809 0H7.58093L6.90639 3.48106ZM4.19297 17.4687H3.66271e-05L2.34563 5.38414H6.53848L4.19297 17.4687Z" fill="var(--fill-0, #EB0033)"/>
<path id="Vector_2" fill-rule="evenodd" clip-rule="evenodd" d="M5.84798 20.8704H10.0409L12.5857 7.79461H15.6441L16.127 5.38403H13.0379L13.1453 4.82896C13.3446 3.79813 13.6665 2.60077 15.2455 2.60077C16.1807 2.60077 17.0775 2.70385 17.9514 3.0924L18.4266 0.547028C17.4685 0.1902 16.426 0.00781422 15.4066 0.00781422C12.0415 0.00781422 9.71896 2.10914 8.86812 5.38403H7.41172L6.95949 7.79461H8.39288L5.84798 20.8704Z" fill="var(--fill-0, #EB0033)"/>
<path id="Vector_3" fill-rule="evenodd" clip-rule="evenodd" d="M19.1243 17.7383C24.076 17.7383 27.51 13.0123 27.51 9.15062C27.51 6.34357 24.9728 5.1145 22.5583 5.1145C17.1236 5.1145 14.1725 10.1973 14.1725 13.7022C14.1725 16.5092 16.7404 17.7383 19.132 17.7383" fill="var(--fill-0, #EB0033)"/>
<path id="Vector_4" fill-rule="evenodd" clip-rule="evenodd" d="M32.3543 17.7383C37.3061 17.7383 40.74 13.0123 40.74 9.15062C40.74 6.34357 38.1952 5.1145 35.7807 5.1145C30.3537 5.1145 27.3949 10.1973 27.3949 13.7022C27.3949 16.5092 29.9628 17.7383 32.3543 17.7383Z" fill="var(--fill-0, #EB0033)"/>
<path id="Vector_5" fill-rule="evenodd" clip-rule="evenodd" d="M47.5551 17.4679H51.725L55.0747 0.268773H50.8818L49.8853 5.37539C49.3411 5.26437 48.7738 5.16921 48.1913 5.16921C44.0827 5.16921 40.3498 10.6327 40.3498 14.534C40.3498 16.1437 41.3463 17.7216 43.0403 17.7216C45.4472 17.7216 47.1182 16.4846 47.8157 15.3349H48.0764L47.5628 17.452L47.5551 17.4679Z" fill="var(--fill-0, #EB0033)"/>
<path id="Vector_6" fill-rule="evenodd" clip-rule="evenodd" d="M34.6386 26.58C31.5725 29.3078 27.4716 30.7113 23.0181 30.4258C17.3995 30.0611 13.5056 25.5175 12.7238 20.9025H12.992C14.2568 23.8523 17.3305 26.5721 21.1938 27.0161C24.9651 27.4523 29.5795 25.6681 32.1167 23.1307L29.2729 20.8787L37.7123 20.9025L35.8957 30.2514L34.6386 26.588V26.58Z" fill="var(--fill-0, #EB0033)"/>
</g>
</svg>
